<?xml version='1.0' encoding='utf-8'?>
<svg xmlns="http://www.w3.org/2000/svg" width="128" height="128" viewBox="0 0 18 18"><path fill="#F0F3FA" d="M0 0h18v18H0z" /><path d="M7.62 8.5v.03h-.04l-.02-.01a3.7 3.7 0 0 1-.23-.68c-.03-.2-.16-.35-.19-.54V7.3a.03.03 0 0 0-.04 0H7.1L5.86 9.4a.05.05 0 0 0 .02.07H7.5c.03 0 .04.01.06.03l.02.04v.78l-.02.04a.07.07 0 0 1-.05.02H5.4a.22.22 0 0 0-.17.08c-.22.26-.3.5-.45.8-.14.31.03.42.32.43a171.18 171.18 0 0 0 2.74-.02.07.07 0 0 0 .02-.05V4.53c0-.04.01-.09.04-.13.1-.14.21-.28.3-.43.16-.31.35-.63.56-.96h.04l.02.04a3582.15 3582.15 0 0 1 .01 8.55c0 .03.02.06.04.08l.07.02h.15c.03 0 .06 0 .09-.03a.11.11 0 0 0 .03-.08V3.05l.01-.03.03-.02h.03l.02.02.8 1.36c.03.06.04.12.04.19v7.05a.07.07 0 0 0 .03.06.08.08 0 0 0 .05.02h2.62c.2 0 .27-.05.36-.18a.1.1 0 0 0 .02-.07c-.03-.17-.1-.27-.23-.3a140.56 140.56 0 0 0-2.15-.56.06.06 0 0 1 0-.07l.03-.02h.03a1279.23 1279.23 0 0 0 2.77 0l.02.03.51.87c.3.47.46.86.11 1.32-.26.34-.79.28-1.23.27H4.3c-.2 0-.4-.06-.55-.2a.89.89 0 0 1-.22-.9l4.01-6.8.02-.02a.04.04 0 0 1 .05 0V8.5Z" fill="#D1A531" /><path d="M8.07 11.73V9.75l.01-1.99a94.36 94.36 0 0 0-.02-3.1c.02-.15.09-.3.19-.45a3.76 3.76 0 0 0 .3-.5.03.03 0 0 1 .04.02v.02l.01 7.95c.07.15.2.22.4.22.18 0 .32-.06.4-.18a.07.07 0 0 0 .02-.05V3.72a.03.03 0 0 1 .04 0l.4.67c.03.05.05.11.05.17v7.1c0 .04 0 .08.03.11.14.17.3.15.52.15.97-.02 1.67-.02 2.08 0 .5 0 .93-.09.83-.66l-.02-.03-.27-.27a.1.1 0 0 0-.05-.02l-.83-.22-.01-.01v-.01h1.2c.2-.01.16.06.23.18l.48.8c.13.2.2.36.2.49a.7.7 0 0 1-.22.5c-.08.08-.29.12-.42.12H4.19c-.09 0-.2-.05-.33-.15l-.02-.02-.16-.32v-.01c0-.15 0-.23.02-.26a163.63 163.63 0 0 0 1.77-3.02c.11-.18.18-.32.3-.5.16-.27.33-.57.5-.9l.37-.62c.11-.15.23-.36.36-.62.05-.09.08-.11.14-.18a.12.12 0 0 0 .02-.05.5.5 0 0 1 .11-.23h.07l.01.04V7.33l-.03.01h-.04c0-.02-.01-.02-.02-.03a.78.78 0 0 0-.09-.27.07.07 0 0 0-.05-.03.08.08 0 0 0-.06 0 .7.7 0 0 0-.21.24l-1.2 2.1a.17.17 0 0 0 .02.22c.08.1.14.13.28.13a57.28 57.28 0 0 0 1.4 0 .04.04 0 0 1 0 .03V10.15l-.04.01H5.28a.1.1 0 0 0-.06.02.65.65 0 0 0-.24.24c-.23.42-.39.73-.48.93-.04.09-.01.22.05.3a.7.7 0 0 0 .57.27 59.52 59.52 0 0 1 2.7-.02l.05-.01.2-.16Z" fill="#1E116C" /><path d="M10.41 8.52v.01a.02.02 0 0 1-.03 0V5.06l.01-.01a.03.03 0 0 1 .03 0l3.13 5.24a.05.05 0 0 1-.02.08H10.5l-.04-.01a.06.06 0 0 1-.02-.04v-.8s0-.02.02-.03l.03-.01h1.63a.05.05 0 0 0 .04-.03.05.05 0 0 0 0-.05l-1.21-2.08a.04.04 0 0 0-.04-.02.04.04 0 0 0-.03.03c-.07.2-.2.45-.29.77-.03.15-.12.27-.18.42Z" fill="#D1A531" /><path d="m10.73 7.29-.01.02a.03.03 0 0 1-.05 0V5.89l.02-.02h.02l.01.02 2.48 4.23v.03l-.01.01h-2.47l-.04-.01a.05.05 0 0 1-.02-.04v-.37c0-.02 0-.03.02-.04l.03-.01 1.38.01c.07 0 .15-.03.24-.1.08-.07.1-.15.04-.24l-1.24-2.17a.52.52 0 0 0-.13-.15.14.14 0 0 0-.2.04.65.65 0 0 0-.07.21Z" fill="#1E116C" /></svg>