<?xml version='1.0' encoding='utf-8'?>
<svg xmlns="http://www.w3.org/2000/svg" width="128" height="128" viewBox="0 0 18 18"><path fill="#00AAF2" d="M0 0h18v18H0z" /><path d="M14.5 7.87a3.88 3.88 0 0 1-3.3 3.83 4.04 4.04 0 0 0-3.94-5.77 3.88 3.88 0 0 1 7.24 1.94ZM7.02 5.94h-.17a4.04 4.04 0 0 0-3.35 4A3.98 3.98 0 0 0 10.94 12l-.02-.06c-.18.31-.83.93-1.94.93a2.27 2.27 0 0 1-2.25-2.25c0-.86.64-1.63.97-1.91-.54.2-1.63.95-1.63 2.32 0 .12.04.42.13.68-.15-.17-.43-.7-.43-1.48 0-2.75 3.28-3.54 4.87-1.59l-.07-.1c-.4-.58-1.07-1.59-2.67-1.59-1.59 0-2.92.95-3.39 2.86-.28-.97-.17-3.12 2.51-3.87Z" fill="#fff" /></svg>