<?xml version='1.0' encoding='utf-8'?>
<svg xmlns="http://www.w3.org/2000/svg" width="128" height="128" viewBox="0 0 18 18"><path fill="#F0F3FA" d="M0 0h18v18H0z" /><path d="M9 8.45V2L7.94 8.95 9 8.45Z" fill="#FB7A2C" /><path d="M9 8.45V2l1.06 6.95L9 8.45Z" fill="#F13A26" /><path d="m9 8.42 1.06.53H7.94L9 8.42ZM7.24 9.78 3 8.64l4.24 2.03v-.9Z" fill="#FB7A2C" /><path d="M7.24 9.83 3 8.64l5.05.31-.81.88Z" fill="#F13A26" /><path d="m7.24 9.83.7-.83-.7 1.67v-.84ZM10.76 9.78 15 8.64l-4.24 2.03v-.9Z" fill="#FB7A2C" /><path d="M10.76 9.83 15 8.64l-5.05.31.81.88Z" fill="#F13A26" /><path d="m10.76 9.83-.7-.83.7 1.67v-.84Z" fill="#FB7A2C" /><path d="m7.94 8.95-.7 1.72L9 12l1.76-1.33-.7-1.72H7.94Z" fill="#0072BD" /><path d="M7.92 11.57 5.12 15 9 12l-1.08-.43Z" fill="#FB7A2C" /><path d="M7.92 11.57 5.12 15l2.12-4.33.68.9Z" fill="#F13A26" /><path d="m7.91 11.58-.67-.91L9 12l-1.09-.42ZM10.08 11.57l2.8 3.43L9 12l1.08-.43Z" fill="#FB7A2C" /><path d="m10.08 11.57 2.8 3.43-2.12-4.33-.68.9Z" fill="#F13A26" /><path d="m10.09 11.58.67-.91L9 12l1.09-.42Z" fill="#FB7A2C" /><ellipse cx="9" cy="10.16" rx="1.26" ry="1.21" fill="#fff" /><path d="M9.09 9.36c-.03-.07-.06-.14-.18-.17-.12 0-.09.3-.09.44 0 .13-.12.23-.21.23-.1 0-.12-.17-.15-.3a2.2 2.2 0 0 0-.12-.34v.64c0 .17.09.3.2.44.13.13 0 .17 0 .3 0 .13-.14.17-.2.44 0 .06.24.13.27.2.03.06.21-.04.3-.07.09-.03.45-.07.51-.1s.36-.03.42-.03-.12-.14-.18-.2c-.06-.07-.09-.07-.09-.1 0-.04.03-.38 0-.44-.03-.07-.15-.1-.2-.14-.07-.03-.1-.1-.13-.2s-.06-.27-.09-.33c-.03-.07-.03-.2-.06-.27Z" /></svg>