<?xml version='1.0' encoding='utf-8'?>
<svg xmlns="http://www.w3.org/2000/svg" width="128" height="128" viewBox="0 0 18 18"><path fill="#F0F3FA" d="M0 0h18v18H0z" /><path fill-rule="evenodd" d="M15 9A6 6 0 1 1 3 9a6 6 0 0 1 12 0Zm-.52 0A5.48 5.48 0 1 1 3.53 9a5.48 5.48 0 0 1 10.95 0ZM6.9 13.82a5.28 5.28 0 0 0 6.91-6.94A5.25 5.25 0 0 0 9 3.75a.06.06 0 0 0-.02.04v.39a.06.06 0 0 0 .06.06 4.75 4.75 0 1 1-4.8 4.82.06.06 0 0 0-.06-.05H3.8a.06.06 0 0 0-.06.05 5.25 5.25 0 0 0 3.17 4.76Zm-.78-7.69a4.06 4.06 0 0 0 2.86 6.94l.02.04v.39a.06.06 0 0 1-.06.06 4.58 4.58 0 0 1-3.18-7.8 4.58 4.58 0 0 1 7.8 3.2.06.06 0 0 1-.06.03h-.4s-.02 0-.03-.02a4.06 4.06 0 0 0-6.94-2.85Zm6.71 2.54A3.84 3.84 0 0 0 9 5.14a3.87 3.87 0 0 0-2.76 6.53h.06l.28-.23a.08.08 0 0 0 .03-.1 3.33 3.33 0 0 1 .48-5.08 3.2 3.2 0 0 1 1.91-.61 3.33 3.33 0 0 1 2.4 5.7.08.08 0 0 0 .02.09l.29.22a.07.07 0 0 0 .1 0 3.87 3.87 0 0 0 1.03-2.99ZM7.14 7.14c-1.66 1.67-.49 4.38 1.8 4.48.01 0 .03 0 .04.02l.01.04v.4a.06.06 0 0 1-.05.05C6.2 12.05 4.8 8.74 6.77 6.77c1.97-1.97 5.28-.56 5.36 2.17a.06.06 0 0 1-.02.04.06.06 0 0 1-.04.01h-.39l-.04-.01a.06.06 0 0 1-.02-.04c-.1-2.29-2.81-3.47-4.48-1.8Zm1.36 3.68a1.9 1.9 0 0 1 0-3.66 1.92 1.92 0 0 1 1.82.45h.02l.34-.27a.05.05 0 0 0 .02-.04.05.05 0 0 0-.02-.04A2.42 2.42 0 0 0 6.58 9a2.43 2.43 0 0 0 4.1 1.72.05.05 0 0 0 0-.04l-.01-.02-.34-.26h-.03c-.57.46-1.17.6-1.8.43Z" fill="#C4883E" /></svg>