<?xml version='1.0' encoding='utf-8'?>
<svg xmlns="http://www.w3.org/2000/svg" width="128" height="128" viewBox="0 0 18 18"><path fill="#F0F3FA" d="M0 0h18v18H0z" /><path d="M12.41 6.28A5.76 5.76 0 0 0 10.33 5l.01-.01H13a.24.24 0 0 0 .01.03v4.18a.04.04 0 0 1-.02.04c-.92.65-2.08 1.01-3.06.23a2.64 2.64 0 0 1-.47-.5 1.98 1.98 0 0 1-.12-1.72c.1-.25.24-.49.4-.69.09-.1.2-.19.32-.27.28-.17.6-.25.92-.26.49-.02.98.08 1.44.24Z" fill="#267FFF" /><path d="M10.56 13H5V5a3079.42 3079.42 0 0 1 3.07.01 3.64 3.64 0 0 0-1.21.8l-.2.26a4.18 4.18 0 0 0-.74 2.76c.05.44.15.85.32 1.24.16.37.36.7.58 1.01.17.23.37.44.6.63.2.17.4.32.6.43a6.85 6.85 0 0 0 2.55.86Z" fill="#22CE00" /></svg>