<?xml version='1.0' encoding='utf-8'?>
<svg xmlns="http://www.w3.org/2000/svg" width="128" height="128" viewBox="0 0 18 18"><path fill="#F0F3FA" d="M0 0h18v18H0z" /><path d="M14.77 6c.4 1.02.26 2.2-.23 3.12a2.86 2.86 0 0 1-2.5 1.62c-1.75 0-2.56-1.05-2.74-1.6l.36-.08c.15.43.83 1.35 2.38 1.35.93 0 1.7-.58 2.16-1.43.46-.85.57-1.94.22-2.88l.35-.1Z" fill="#0405F8" /><path d="M13.87 6.26c.4 1.03.26 2.2-.23 3.12a2.86 2.86 0 0 1-2.5 1.62C9.39 11 8.58 9.95 8.4 9.41l.36-.1c.15.45.83 1.36 2.38 1.36.93 0 1.7-.58 2.16-1.43.46-.85.57-1.94.22-2.87l.35-.1ZM3.23 12c-.4-1.02-.26-2.2.23-3.12a2.86 2.86 0 0 1 2.5-1.62c1.75 0 2.56 1.05 2.74 1.6l-.36.08C8.2 8.51 7.51 7.6 5.96 7.6c-.93 0-1.7.58-2.16 1.43a3.54 3.54 0 0 0-.22 2.88l-.35.1Z" fill="#0405F8" /><path d="M4.13 11.74c-.4-1.03-.26-2.2.23-3.12A2.86 2.86 0 0 1 6.86 7C8.61 7 9.42 8.05 9.6 8.59l-.36.1c-.15-.45-.83-1.36-2.38-1.36-.93 0-1.7.58-2.16 1.43a3.54 3.54 0 0 0-.22 2.87l-.35.1Z" fill="#0405F8" /></svg>