<?xml version='1.0' encoding='utf-8'?>
<svg xmlns="http://www.w3.org/2000/svg" width="128" height="128" viewBox="0 0 18 18"><path fill="#F0F3FA" d="M0 0h18v18H0z" /><path d="M3.59 8.1a15.36 15.36 0 0 0 .46.22 103.54 103.54 0 0 0 2.87 1.45c.15-.16.31-.28.5-.39a3.67 3.67 0 0 1 2.2-.3c.45.08.82.23 1.13.46.12.09.22.2.31.33l.1.2a.8.8 0 0 1 0 .23v.02a138.45 138.45 0 0 1-2.25.25c-.42-.05-.77-.1-1.05-.12l-.1-.02-2.13-.25c-.1 0-.17-.02-.18-.02L3 9.87a6.11 6.11 0 0 1 .31-1.23 5.12 5.12 0 0 1 .28-.55Zm10.83 0A4.45 4.45 0 0 1 15 9.87l-3.65.42v-.01a.53.53 0 0 0 0-.26.8.8 0 0 0-.12-.24v-.02l.1-.06.79-.4a1017.66 1017.66 0 0 0 2.31-1.2Zm-1.08-1.43a5.33 5.33 0 0 1 .97 1.21l-.03.03-1.23.64-.1.05-.17.1a121.2 121.2 0 0 0-1.69.86 1.77 1.77 0 0 0-.4-.32 215.27 215.27 0 0 1 2.65-2.57Zm-8.66 0 .06.05.05.05a89.9 89.9 0 0 0 .98.94 70 70 0 0 1 1.52 1.5 2.04 2.04 0 0 0-.43.32L3.7 7.88v-.02l.01-.03a5 5 0 0 1 .97-1.16Zm6.76-1.22a6.88 6.88 0 0 1 1.72 1.05v.02a25.26 25.26 0 0 0-.9.88l-.44.42-.24.24a93.83 93.83 0 0 0-1.08 1.07 2.48 2.48 0 0 0-.58-.22l.17-.4.83-1.9.43-.99a10.98 10.98 0 0 0 .09-.17Zm-4.84 0 1.51 3.44v.02c-.2.04-.4.1-.58.18H7.5a264 264 0 0 1-.84-.83l-.04-.04a92.45 92.45 0 0 0-1.55-1.5l-.22-.21v-.02A5.75 5.75 0 0 1 6.6 5.45ZM9.11 5a6.3 6.3 0 0 1 2.07.37l-.01.02-.02.03A242.12 242.12 0 0 0 9.7 8.88a3.48 3.48 0 0 0-.6-.07v-3.8h.02Zm-.22 0v3.35a8.53 8.53 0 0 1-.02.47c-.17 0-.34.01-.51.05-.02 0-.03 0-.03-.02l-1.48-3.5v-.01l.05-.02a6.76 6.76 0 0 1 2-.31ZM14.98 11c.01 0 .02 0 .02.02v.96c0 .01 0 .02-.02.02H3.02c-.01 0-.02 0-.02-.02v-.96C3 11 3 11 3.02 11h11.96Z" fill="#B9B801" /></svg>