<?xml version='1.0' encoding='utf-8'?>
<svg xmlns="http://www.w3.org/2000/svg" width="128" height="128" viewBox="0 0 18 18"><path fill="#F0F3FA" d="M0 0h18v18H0z" /><path fill-rule="evenodd" d="M13.74 13.74a.87.87 0 0 0 .26-.61V4.87a.87.87 0 0 0-.87-.87H4.87a.87.87 0 0 0-.87.87v8.26a.87.87 0 0 0 .87.87h8.26c.23 0 .45-.1.61-.26ZM4.5 8.88c0-.37.07-.7.15-1.06l.01-.03a4.5 4.5 0 0 1 3.15-3.13l.2-.05c.12-.03.23-.06.34-.07a5.08 5.08 0 0 1 1.86.13 4.51 4.51 0 0 1 3.02 2.77c.08.21.13.46.19.68 0 .05.02.1.03.14a3.72 3.72 0 0 1 .04.64l-.02.02a.3.3 0 0 1-.12 0 .04.04 0 0 1-.03-.04 3.72 3.72 0 0 0-2.69-3.4 3.87 3.87 0 0 0-2.1.03l-.18.05-.24.1a3.7 3.7 0 0 0-2.09 2.6L6 8.42a2.18 2.18 0 0 0-.06.48l-.02.01H4.53a.03.03 0 0 1-.03-.03Zm1.63 0c0-.18 0-.31.03-.39l.04-.19a3.41 3.41 0 0 1 3.1-2.78 3.5 3.5 0 0 1 3.83 3.34c.01.05-.03.07-.1.05a.07.07 0 0 1-.06-.06 2.73 2.73 0 0 0-1.76-2.44c-.12-.05-.24-.1-.36-.12a2.7 2.7 0 0 0-3.3 2.6l-.01.01H6.15a.02.02 0 0 1-.02-.02Zm2.83.02.01-.01c.03-.32.1-.65.24-.91a1.81 1.81 0 0 1 3.4.88.06.06 0 0 0 .05.05h.07a.06.06 0 0 0 .06-.06 2.53 2.53 0 0 0-4.95-.62l-.02.06c-.06.24-.09.37-.09.6a.03.03 0 0 0 .03.02h1.2Zm4.5.19a.03.03 0 0 1 .03.02c.02.38-.06.7-.15 1.06v.04l-.13.4A4.5 4.5 0 0 1 10 13.39a5.08 5.08 0 0 1-2.2-.05A4.5 4.5 0 0 1 4.5 9.1l.02-.02a.3.3 0 0 1 .12 0 .04.04 0 0 1 .03.04 3.72 3.72 0 0 0 2.7 3.4 3.87 3.87 0 0 0 2.08-.04l.2-.06.23-.09a3.7 3.7 0 0 0 2.08-2.6l.04-.17a2.2 2.2 0 0 0 .05-.47l.02-.01h1.39Zm-1.6 0h-1.4v.02a2.7 2.7 0 0 1-3.66 2.48l-.12-.04-.32-.16a2.73 2.73 0 0 1-1.33-2.24.06.06 0 0 0-.05-.06c-.08-.02-.12 0-.12.05a3.13 3.13 0 0 0 .28 1.25 3.5 3.5 0 0 0 4.73 1.76A3.5 3.5 0 0 0 11.8 9.7l.04-.19a2.1 2.1 0 0 0 .03-.4Zm-1.6.02v.2c-.05.3-.12.55-.18.73-.03.08-.1.2-.2.36-.35.53-.82.91-1.4 1.09a2.68 2.68 0 0 1-1.93-.19A2.54 2.54 0 0 1 5.2 9.11V9.1h.15a.02.02 0 0 1 .03.01 1.83 1.83 0 0 0 1.6 1.85 1.8 1.8 0 0 0 1.82-1 1.93 1.93 0 0 0 .18-.86h1.27v.02Z" fill="#CD000A" /></svg>