<?xml version='1.0' encoding='utf-8'?>
<svg xmlns="http://www.w3.org/2000/svg" width="128" height="128" viewBox="0 0 18 18"><path fill="#F0F3FA" d="M0 0h18v18H0z" /><path d="M10 4.06A4.97 4.97 0 0 0 9.62 4v2.67L7.99 8.03l1.09 1.36.62-.46-.33-.47a.57.57 0 0 1 .1-.76c.25-.2.6-.15.78.09l.67.86a.6.6 0 0 1-.09.84l-1.55 1.29a.5.5 0 0 1-.7-.08L6.6 8.2a.52.52 0 0 1 .08-.73l1.68-1.33V4A5.01 5.01 0 0 0 9 14a5.01 5.01 0 0 0 4.7-6.74L12.2 8.5c-.25.2-.6.16-.8-.1L10 6.6V4.06Zm3.13 2.1L11.9 7.2l-.65-.98V4.5c.76.38 1.4.95 1.88 1.65Z" fill="url(#a)" /><path d="M13.98 8.49a4.44 4.44 0 1 1-6.95-4.12A5.02 5.02 0 0 0 9 14a5.01 5.01 0 0 0 4.98-5.51Z" fill="url(#b)" /><defs><linearGradient id="a" x1="13.3" y1="6.05" x2="7.05" y2="12.24" gradientUnits="userSpaceOnUse"><stop stop-color="#F48E20" /><stop offset="1" stop-color="#C04B28" /></linearGradient><linearGradient id="b" x1="4.69" y1="9.54" x2="9.02" y2="13.98" gradientUnits="userSpaceOnUse"><stop stop-color="#0060AA" /><stop offset="1" stop-color="#96BD53" /></linearGradient></defs></svg>