<?xml version='1.0' encoding='utf-8'?>
<svg xmlns="http://www.w3.org/2000/svg" width="128" height="128" viewBox="0 0 18 18"><path fill="#F0F3FA" d="M0 0h18v18H0z" /><path d="M8.43 4c.29.06.5.18.64.37a376.13 376.13 0 0 1 1.01 1.45.03.03 0 0 1-.03.01.46.46 0 0 1-.14-.05.4.4 0 0 0-.15-.05c-.17 0-.3.06-.4.2a6864.8 6864.8 0 0 0-2.78 3.95c-.21.31-.5.46-.84.45a1 1 0 0 1-.82-.5c-.2-.3-.51-.72-.92-1.26v-.09c.24.14.45.15.62.04.04-.04.17-.2.39-.5l2.42-3.46c.21-.31.47-.5.76-.56h.24Z" fill="#92701D" /><path d="M7.96 9.2a94.23 94.23 0 0 1 1.6-2.26.95.95 0 0 1 1.02-.2c.17.05.38.26.62.6A151.36 151.36 0 0 1 12 8.47a.04.04 0 0 1-.04.03h-.03c-.26-.18-.52-.1-.76.23l-1.21 1.73a99.76 99.76 0 0 1-1.61 2.25.95.95 0 0 1-1.02.22c-.17-.07-.38-.27-.62-.6a152.35 152.35 0 0 1-.79-1.15l.01-.03a.04.04 0 0 1 .06 0c.26.18.52.1.76-.24.26-.35.66-.93 1.22-1.73Z" fill="#BD9A56" /><path d="M14 9.37c-.2 2.13-1.2 3.33-3 3.6-.21.02-.41.03-.6.01a.15.15 0 0 1-.09-.04.14.14 0 0 1-.04-.1c-.02-1.06.3-1.92.97-2.58a3.79 3.79 0 0 1 2.68-1.02.13.13 0 0 1 .07.08l.01.05Z" fill="#D6AD60" /></svg>