<?xml version='1.0' encoding='utf-8'?>
<svg xmlns="http://www.w3.org/2000/svg" width="128" height="128" viewBox="0 0 18 18" fill="none">
<rect width="18" height="18" fill="#F0F3FA" />
<path d="M10 8.28125V6.84358C10 6.84358 10.3509 6.59505 10.7999 6.6C11.7502 6.61048 12 7.40625 12 8.28125C12 10.9688 9.4 13 9.4 13C9.4 13 14 11.0938 14 7.71875C14.0001 5.9527 13.2209 4.70437 11.4688 4.60938C10.6136 4.56301 10 4.90739 10 4.90739V4.00049L8 6.4189L10 8.28125Z" fill="#A6CE39" />
<path d="M8 9.71924L8 11.1569C8 11.1569 7.64913 11.4054 7.20015 11.4005C6.24984 11.39 6 10.5942 6 9.71924C6 7.03174 8.6 5.00049 8.6 5.00049C8.6 5.00049 3.99999 6.90674 3.99999 10.2817C3.99986 12.0478 4.77907 13.2961 6.53125 13.3911C7.38644 13.4375 8 13.0931 8 13.0931L8 14L10 11.5816L8 9.71924Z" fill="#2E2661" />
</svg>