<?xml version='1.0' encoding='utf-8'?>
<svg xmlns="http://www.w3.org/2000/svg" width="128" height="128" viewBox="0 0 18 18"><path fill="#F0F3FA" d="M0 0h18v18H0z" /><path d="M10.38 11.6a3599 3599 0 0 1-2.62-2.4.13.13 0 0 0-.07-.04l-.02-.03a.1.1 0 0 0-.02-.03l-.63-.58A863.25 863.25 0 0 0 7 4.58c0-.16.02-.28.07-.35.14-.21.43-.28.69-.2.06.03.15.1.26.2l4.72 4.33c.15.13.23.24.24.3.03.1.02.2-.01.3a.8.8 0 0 1-.2.24l-2.4 2.2Z" fill="#F6D00D" /><path d="m10.38 11.6-2.33 2.13c-.15.14-.27.23-.35.25a.58.58 0 0 1-.45-.06c-.26-.14-.25-.3-.25-.59v-3.5a.1.1 0 0 1 .03-.07l.66-.6.07.04 2.62 2.4Z" fill="#E6B122" /></svg>