<?xml version='1.0' encoding='utf-8'?>
<svg xmlns="http://www.w3.org/2000/svg" width="128" height="128" viewBox="0 0 18 18"><path fill="#F0F3FA" d="M0 0h18v18H0z" /><path d="M10.92 4.67V4H14v7.53c0 1.36-1.24 2.47-2.76 2.47h-3.7c.39-.18.64-.54.72-.67h2.7c1.35 0 2.27-.9 2.27-2.12V4.67h-2.3Z" fill="#A4CB34" /><path d="M6.95 13.33V14H4V6.47C4 5.11 5.24 4 6.76 4h3.7c-.39.18-.64.54-.72.67h-2.7c-1.35 0-2.27.9-2.27 2.12v6.54h2.18Z" fill="#00429C" /><path d="M5 6.75V13h1.96v-.31c0-.67.6-1.13 1.35-1.13h1.25c.75 0 1.35-.62 1.35-1.29V8.95H7.1V7.79c0-.67.6-1.27 1.35-1.27h.93V5H6.95C5.87 5 5 5.78 5 6.75Z" fill="#00429C" /><path d="M13 11.25V5h-1.96v.31c0 .67-.6 1.13-1.35 1.13H8.44c-.75 0-1.34.62-1.34 1.29V9h3.81v1.21c0 .67-.6 1.35-1.35 1.35h-.93V13h2.42c1.08 0 1.95-.78 1.95-1.75Z" fill="#A4CB34" /></svg>