<?xml version='1.0' encoding='utf-8'?>
<svg xmlns="http://www.w3.org/2000/svg" width="128" height="128" viewBox="0 0 18 18"><path fill="#F0F3FA" d="M0 0h18v18H0z" /><path d="M7.88 13.62a.3.3 0 0 1 .2.08c.05.05.08.12.08.2l.01.37c.02.09.06.2.13.35.03.08.03.15 0 .22a.28.28 0 0 1-.15.13.32.32 0 0 1-.22.02.32.32 0 0 1-.19-.16 1.5 1.5 0 0 1-.16-.46 1.46 1.46 0 0 1-.02-.48.3.3 0 0 1 .12-.2.32.32 0 0 1 .2-.07ZM9.34 3h.02c.07.02.13.05.17.1.04.05.06.11.05.18l-.11.75c0 .04.01.06.06.06.63.01 1.26.08 1.88.2.33.07.65.17.95.29.27.11.5.25.66.4a2 2 0 0 1 .44.61c.15.32.27.69.35 1.11.25 1.4.25 2.8.02 4.21-.08.51-.22.93-.4 1.24-.23.4-.56.68-1 .86-.14.06-.39.12-.74.19l-.13.03c-.89.17-1.8.27-2.74.3a.3.3 0 0 1-.21-.09.27.27 0 0 1-.1-.2v-.02c0-.07.02-.13.07-.19a.28.28 0 0 1 .2-.08c.86 0 1.68-.08 2.46-.21.52-.1.9-.22 1.14-.37.34-.23.57-.52.7-.88.11-.37.2-.78.24-1.25a12.58 12.58 0 0 0-.17-3.74c-.08-.33-.2-.64-.37-.9-.16-.27-.49-.48-.99-.62-.7-.2-1.43-.31-2.2-.31-.03 0-.04.01-.03.04.03.12.09.24.16.36a18.75 18.75 0 0 0 1.25 1.74c.5.7.72 1.42.64 2.17-.08.71-.37 1.3-.87 1.75-.45.42-1.07.72-1.83.9a.06.06 0 0 0-.05.04c-.19.49-.42 1.01-.7 1.56a.38.38 0 0 1-.12.16.37.37 0 0 1-.2.04 7.14 7.14 0 0 1-2.12-.37 1.79 1.79 0 0 1-1.1-.95 5.86 5.86 0 0 1-.52-1.8 12.98 12.98 0 0 1-.04-2.92c.04-.37.13-.8.26-1.3.23-.84.8-1.39 1.7-1.65a8.2 8.2 0 0 1 2.3-.32c.07 0 .14.02.2.07s.1.12.11.2c.01.06 0 .12-.05.18a.25.25 0 0 1-.18.1l-.34.01a6.85 6.85 0 0 0-2.18.42c-.32.12-.56.3-.71.57-.22.37-.36.77-.43 1.19-.21 1.39-.2 2.71.06 3.98.1.5.3.97.61 1.4.06.07.19.16.38.26.2.1.48.18.83.24l.91.12h.02c.1 0 .16-.02.19-.1a22.64 22.64 0 0 0 1.4-3.97 3.1 3.1 0 0 0-.03-1.65c-.1-.26-.26-.42-.49-.47a1 1 0 0 0-.7.12c-.47.25-.74.73-.8 1.44-.11 1.01.2 1.88.94 2.6.06.05.1.11.12.19a.3.3 0 0 1 0 .19c-.06.13-.18.17-.38.1-.16-.06-.33-.2-.51-.42a3.93 3.93 0 0 1-.8-2.36c0-.68.18-1.26.53-1.73.2-.26.46-.46.77-.6.33-.13.65-.16.98-.09.38.1.66.33.85.7.15.32.23.68.22 1.1 0 .46-.09.98-.24 1.55a20.38 20.38 0 0 1-.47 1.5h.02c.36-.1.68-.26.96-.49.27-.21.49-.47.64-.77a2.2 2.2 0 0 0 .06-1.96 4.07 4.07 0 0 0-.45-.77c-.4-.51-.69-.9-.88-1.17A3.37 3.37 0 0 1 9 4.9a2.99 2.99 0 0 1 0-1.68.29.29 0 0 1 .13-.17.32.32 0 0 1 .22-.05Z" fill="#008039" /></svg>