<?xml version='1.0' encoding='utf-8'?>
<svg xmlns="http://www.w3.org/2000/svg" width="128" height="128" viewBox="0 0 18 18" fill="none">
<rect width="18" height="18" fill="#EC1D25" />
<path fill-rule="evenodd" clip-rule="evenodd" d="M4.31327 11C5.00278 11 5.71762 10.7622 6.1588 10.3805L6.6875 11H8.21875L6.60938 9H4.48535C4.48535 9 4.48361 9.2559 4.48361 9.52344C4.48361 9.79098 4.48535 10 4.48535 10C3.90625 10 3.3 9.78125 3.3 9C3.3 8.44807 3.64062 8 4.23438 8H6.01562L5.17756 7H4.48535H4.31502C2.84375 6.99858 2 7.92092 2 9C2 10.1046 2.97531 11 4.31327 11ZM9.3125 7H6.15625L6.92771 8H9.0957C9.45756 8 9.7 8.19895 9.7 8.46875C9.7 8.73856 9.45756 9 9.0957 9H7.64863L9.23438 11H10.875L9.7 9.65625C9.7 9.65625 11 9.66607 11 8.46875C11 7.55669 10.1719 7 9.3125 7ZM11.7 7V11H13V10H14.2282C15.2151 10 16 9.51563 16 8.50001C16 7.48438 15.3428 7 14.3267 7H11.7ZM13 8.00001V9.00001H14.0321C14.4212 9.00001 14.7 8.95313 14.7 8.50807C14.7 8.06301 14.3914 8.00001 14.0978 8.00001H13Z" fill="white" />
</svg>