<?xml version='1.0' encoding='utf-8'?>
<svg xmlns="http://www.w3.org/2000/svg" width="128" height="128" viewBox="0 0 18 18"><path fill="#19272D" d="M0 0h18v18H0z" /><path d="M9.84 4.82a.2.2 0 0 0 0 .1v.02l-.02.02a.98.98 0 0 1-.48.12c0-.22-.08-.37-.27-.44h-.39l-.08.01a1.9 1.9 0 0 0-.74.43c.05-.17.11-.29.18-.37.16-.2.45-.46.69-.6.17-.1.36-.13.56-.1.1.02.19.1.26.22l.02.06c0 .15.04.3.11.45.03.06.08.08.16.08Z" fill="#70B452" /><path d="M12.95 5.38a.66.66 0 0 0-.1.31c0 .03 0 .06-.02.08-.13.25-.3.46-.54.62l-.68.4-.55.28c-.2.07-.44.08-.7.03.26-.1.31-.28.43-.57.14-.31.23-.68.07-1-.1-.19-.27-.2-.47-.21l.05-.33a.07.07 0 0 0-.01-.05.65.65 0 0 0-.24-.17 4.16 4.16 0 0 1 1.04-.47c.22 0 .43-.02.64.03.56.14.92.5 1.08 1.05Z" fill="#F28369" /><path d="m9.34 5.08-.5.82c-.27.41-.47.85-.62 1.31-.04.14-.06.3-.04.5-.24-.21-.4-.5-.5-.83a.12.12 0 0 0-.05-.07l-.04-.03-.03-.21a2.2 2.2 0 0 1 0-.85c0-.04.03-.1.07-.19a.67.67 0 0 0 .06-.2l.17-.25c.21-.2.46-.34.74-.43H9.07c.19.06.28.2.27.43Z" fill="#E95B39" /><path d="M10.19 4.77c.1.05.19.1.24.17a.07.07 0 0 1 .01.05l-.05.33-.16.23c.05-.17.07-.34.08-.5 0-.13-.06-.2-.17-.25l.05-.03Z" fill="#DFE5AD" /><path d="M10.14 4.8c.1.06.17.12.17.25 0 .16-.03.33-.08.5A5.2 5.2 0 0 1 9.14 6.9c-.08.04-.15.14-.2.33.01-.04 0-.06-.03-.06s-.08.04-.14.11a.1.1 0 0 1-.05.03c-.07.03-.1.07-.11.14l-.26.17a.07.07 0 0 0-.03.05c0 .12.07.18.12.28.03.07.06.1.09.08l-.07.07c-.05.03-.09 0-.1-.05a.82.82 0 0 0-.19-.34c0-.2.01-.36.05-.5.15-.46.35-.9.61-1.31l.51-.82c.18 0 .34-.04.48-.12l.02-.02v-.02a.2.2 0 0 1 0-.1l.05.02h.06l.19-.04Z" fill="#FAC934" /><path d="M7.7 5.34c-.02.06-.03.13-.07.2a.91.91 0 0 0-.07.18 2.2 2.2 0 0 0 0 .85l.03.21a1.2 1.2 0 0 1-.17-.12c-.05-.04-.09-.03-.1.03a.97.97 0 0 0-.1-.3c-.2-.32-.48-.57-.92-.5-.1.02-.18.05-.21.1-.1.12-.21.24-.33.35A.69.69 0 0 1 5.9 6c.32-.43.75-.68 1.29-.75.08-.01.2.03.38.11a.06.06 0 0 0 .06 0l.06-.03Z" fill="#F28369" /><path d="M10.39 5.32c.2.02.37.02.47.21.16.32.07.69-.07 1-.12.3-.17.47-.43.57-.24 0-.43.05-.58.12-.17.08-.3.14-.4.17a.2.2 0 0 0-.08.04.73.73 0 0 1-.28.16.04.04 0 0 0-.03.02v.02l-.02.02-.44.38c-.03.01-.06-.01-.1-.08-.04-.1-.11-.16-.1-.28a.07.07 0 0 1 .02-.05l.26-.17c.04.15.09.22.16.2.04.02.08.02.12 0a.78.78 0 0 0 .16-.15c.05-.06.05-.14-.01-.23l.1-.37a7.56 7.56 0 0 0 1.1-1.35l.15-.23Z" fill="#63A17F" /><path d="M13.03 6.5 13 6.37a.03.03 0 0 0-.04-.02l-.01.02-.03.09-.02.03h-.03c-.44.03-.86.13-1.27.3l.68-.4c.23-.16.41-.37.54-.62a.23.23 0 0 0 .02-.08.66.66 0 0 1 .1-.31c.16.24.21.48.15.7-.05.19-.08.32-.07.42Z" fill="#6E685C" /><path d="M12.77 6.47h-.3a.04.04 0 0 1-.03-.03V6.4c.32-.28.48-.5.48-.66a.04.04 0 0 1 .02-.03.04.04 0 0 1 .04 0l.05.07.01.04c0 .21-.04.4-.15.58a.14.14 0 0 1-.12.07Z" fill="#020303" /><path d="M7.32 6.69c.27.43.44.89.5 1.37a23.88 23.88 0 0 0-2.04-.79.28.28 0 0 1-.16 0l.05-.09.01-.04.08-.8c.12-.11.23-.23.33-.36.03-.04.1-.07.21-.1.44-.06.72.19.92.51.04.07.07.17.1.3Z" fill="#FAC934" /><path d="M13.03 6.5c.39.1.7.32.94.67l.01.04v.6a2 2 0 0 1-1 1 .05.05 0 0 1-.06-.03 1.28 1.28 0 0 0-.32-.42 1.96 1.96 0 0 1-.18-.2 1.7 1.7 0 0 0-1.33-1c-.05-.03-.06-.06-.03-.09l.55-.28a3.79 3.79 0 0 1 1.3-.3l.02-.03.03-.1a.03.03 0 0 1 .05.01l.02.13Z" fill="#70B452" /><path d="m7.59 6.78.04.03c.02.01.04.04.05.07.1.34.26.62.5.83.06.05.12.17.17.34.02.06.06.08.11.05l-.01.2-.1-.03-.3-.03a.02.02 0 0 0 0 .01.01.01 0 0 0 0 .02c.1.06.2.1.3.1l-.01.24c-.02.23.03.44.02.66v.09l.1.32-.18-.4a.03.03 0 0 0-.02 0 .03.03 0 0 0-.02 0l-.21.14a.2.2 0 0 0-.06.06l-.18.3.1-.67c.06-.04.08-.14.05-.31a.04.04 0 0 0-.03-.04l-.04.02a.86.86 0 0 1-.05-.35l-.01-.05a.11.11 0 0 0-.05-.03c-.06-.04-.14-.05-.25-.03l.32-.26a3.49 3.49 0 0 0-.51-1.37c.01-.06.05-.07.1-.03l.17.12Z" fill="#6E685C" /><path d="m9.14 6.9-.1.37a.19.19 0 0 1-.07-.04c-.02-.02-.02-.03-.02 0 .04-.19.1-.3.2-.33Z" fill="#DFE5AD" /><path d="M11.06 7.07c-.03.03-.02.06.03.09a1.7 1.7 0 0 1 1.33 1c-.07.02-.1.06-.07.12.05.1.07.18.06.26a.8.8 0 0 1-.42.59.7.7 0 0 1-.42.11c-.31 0-.57-.02-.78-.06a26.5 26.5 0 0 0-2.34-.88l.01-.2.07-.07.44-.38.02-.02V7.6a.04.04 0 0 1 .03-.02c.11-.03.2-.09.28-.16a.2.2 0 0 1 .08-.04c.1-.03.23-.09.4-.17.15-.07.34-.11.58-.12.26.05.5.04.7-.03Z" fill="#E95B39" /><path d="M8.95 7.23c0-.02 0-.02.02 0-.17.04-.22.28-.2.43-.07 0-.12-.06-.16-.21 0-.07.04-.11.11-.14a.1.1 0 0 0 .05-.03c.06-.07.1-.1.14-.1.03-.01.04 0 .04.05Z" fill="#6E685C" /><path d="M5.62 7.26c.05.02.1.02.16.01h.07c.65.23 1.31.5 1.98.8l-.32.25-.78.2-.59.1H6.1c-.22.1-.48.02-.7.05-.12-.05-.27-.07-.36-.12-.13-.09-.18-.22-.13-.4.03-.14.1-.3.2-.46.14-.16.31-.3.51-.43Z" fill="#E95B39" /><path d="M5.1 7.69c-.1.16-.16.32-.2.47-.04.17 0 .3.14.39.09.05.24.07.36.12.12.17.29.29.48.35-.17.15-.29.26-.34.35a2.8 2.8 0 0 0-.21.46l-.05.06c-.09 0-.15.03-.2.07a.76.76 0 0 1-.5-.46c-.05-.13-.08-.3-.08-.5 0-.29-.01-.56.13-.83.05-.09.2-.25.48-.48Z" fill="#70B452" /><path d="M13.99 7.82c.02.17.01.33-.01.47 0 .04-.05.12-.13.25a20.85 20.85 0 0 0-.16.24c-.44.5-.98.72-1.64.88-.12.03-.28.04-.42.09l-.18-.07a2.32 2.32 0 0 0-.66-.5c.2.04.47.06.78.06a.7.7 0 0 0 .42-.11.8.8 0 0 0 .42-.6.42.42 0 0 0-.06-.25c-.02-.06 0-.1.07-.11l.18.2c.16.14.24.24.32.41l.03.03h.03a2 2 0 0 0 1-1Z" fill="#6E685C" /><path d="M8.45 8.3a26.5 26.5 0 0 1 2.34.88c.29.16.5.32.66.5l-.07 1.15c-.21.14-.45.21-.7.22-.24 0-.51-.04-.82-.12a2.06 2.06 0 0 1-.5-.23l-.4-.26a1.5 1.5 0 0 1-.34-.4 1.78 1.78 0 0 0-.12-.26l-.05-.1-.08-.32a.28.28 0 0 1-.01-.09c0-.22-.04-.43-.02-.66l.01-.23v-.1l.1.01Z" fill="#FAC934" /><path d="m13.85 8.3.01-.01h.01a.02.02 0 0 1 .01.02c-.1.22-.22.4-.36.55-.53.52-1.17.78-1.94.77a.11.11 0 0 1-.08-.04l-.16-.16a.03.03 0 0 1 .01-.04l.05-.01c.18.03.44 0 .65-.1.07-.04.22-.09.45-.16a3.52 3.52 0 0 0 1.03-.52l.32-.3Z" fill="#020303" /><path d="M7.5 8.32c.12-.02.2-.01.26.03a7.04 7.04 0 0 0-1.47 2.67c-.11.12-.24.23-.4.31a.8.8 0 0 1-.31-.07.2.2 0 0 1-.1-.08.25.25 0 0 0-.06-.08.11.11 0 0 1-.04-.06 3.43 3.43 0 0 1-.1-1.15.14.14 0 0 0 .05-.06l.2-.46c.06-.09.18-.2.35-.35l.85-.5.78-.2Z" fill="#FAC934" /><path d="m7.87 8.78.01.33-.1.66a6.2 6.2 0 0 1-.46 1.56c-.09.18-.2.38-.32.5a.6.6 0 0 1-.22.13l-.24-.06a.05.05 0 0 1-.03-.04c-.02-.17-.12-.3-.15-.48a1.86 1.86 0 0 1-.03-.3c0-.06 0-.08-.04-.06l.29-.78c.3-.7.68-1.32 1.18-1.9l.05.04.01.05c0 .13.01.25.05.35Z" fill="#E95B39" /><path d="M12.46 9.01a.03.03 0 0 1-.04 0v-.04a.92.92 0 0 0 .13-.48.03.03 0 0 1 .04 0c.1.07.15.17.19.3a.12.12 0 0 1-.08.15l-.24.07Z" fill="#63A17F" /><path d="m6.73 8.53-.85.49a.97.97 0 0 1-.48-.35c.22-.03.48.06.7-.04l.04-.01.6-.1Z" fill="#6E685C" /><path d="M7.88 9.1v-.32l.03-.02a.04.04 0 0 1 .03.04c.03.17.01.27-.06.3ZM7.9 9.48a.01.01 0 0 1-.01 0l-.01-.03v-.03l.27-.45a.04.04 0 0 1 .06 0v.01l.02.12a.1.1 0 0 1-.03.08l-.3.3Z" fill="#020303" /><path d="m8.45 9.68.05.1v.12c.1.4.08.8-.06 1.2-.15.43-.62 1.27-1.16 1.3-.26 0-.43-.14-.5-.44a.6.6 0 0 0 .22-.12c.12-.13.23-.33.32-.5.22-.51.38-1.03.47-1.57l.18-.29a.2.2 0 0 1 .06-.06l.2-.14a.03.03 0 0 1 .05 0l.17.4Z" fill="#63A17F" /><path d="M11.63 9.75c-.06.02-.08.06-.06.11l.12.34a.82.82 0 0 1-.3.63l.06-1.15.18.07Z" fill="#DFE5AD" /><path d="M8.5 9.78c.05.08.09.17.12.26.04.08.15.22.35.4l.26 1.3.34.72.02.03c.13.13.23.29.3.46-.22.29-.38.46-.47.5l-.66.4c-.06.04-.22.08-.46.14h-.41a1.34 1.34 0 0 1-1.2-.82 2 2 0 0 1-.2-.57c0-.14 0-.29-.03-.43a.12.12 0 0 0 .02-.08.04.04 0 0 0-.03-.04c-.07-.01-.1 0-.1.05l-.11-.01c-.01-.03 0-.05.03-.05a3.67 3.67 0 0 0 .14-.04c.05-.05.06-.1.04-.17a6.9 6.9 0 0 0-.16-.3l-.44.34c-.03.06 0 .13.05.2h-.13c.08 0 .05-.05-.1-.13-.02-.02-.03-.04 0-.05a5.47 5.47 0 0 0 .27-.2v-.02l-.05-.34c.16-.08.29-.19.4-.31.03-.02.05 0 .04.06l.03.3c.03.19.13.31.15.48a.05.05 0 0 0 .03.04l.24.06c.07.3.24.44.5.43.54-.02 1-.86 1.16-1.3.14-.39.16-.79.06-1.19a.37.37 0 0 1 0-.12Z" fill="#70B452" /><path d="M5.28 9.89c.01.01.02.03.01.05-.03.07-.07.1-.1.1-.04-.04-.07-.07-.1-.08.04-.04.1-.07.2-.07Z" fill="#DFE5AD" /><path d="M5.3 9.94c-.04.37 0 .74.08 1.1 0 .02.02.05.04.06l.07.08a.2.2 0 0 0 .09.08c.1.04.2.07.3.07l.06.34a.05.05 0 0 1-.02.05l-.26.17c-.02.01-.01.03.02.05-.11 0-.15.03-.12.1h-.3c-.29-.02-.5 0-.52-.34-.03-.44 0-.8.09-1.08.05-.16.17-.35.36-.57.03 0 .07-.04.1-.1Z" fill="#F28369" /><path d="M11.94 10.59c-.02.12 0 .29.06.48l-.01-.01h-.01a.02.02 0 0 0-.02 0v.01a.4.4 0 0 1-.14.2c-.28.23-.59.22-.94.15a2.09 2.09 0 0 1-1.02-.5c.3.1.58.14.82.13.25 0 .49-.08.7-.22a.82.82 0 0 0 .3-.63l.26.39Z" fill="#63A17F" /><path d="M9.86 10.93c.3.26.64.43 1.02.5.35.06.66.07.94-.15a.4.4 0 0 0 .13-.2v-.02a.02.02 0 0 1 .03 0l.02.01c.17.64.02 1.22-.43 1.74a.97.97 0 0 1-.63.32 3.51 3.51 0 0 1-.6-.03l-.45-.15a1.42 1.42 0 0 0-.32-.5l-.34-.7v-.02l-.26-1.29.4.26c.17.1.33.18.5.23Z" fill="#F28369" /><path d="M11.94 10.59c.33.44.44.93.34 1.45a.68.68 0 0 1-.16.26c-.15.19-.34.36-.55.51.45-.52.6-1.1.43-1.74a.91.91 0 0 1-.06-.48Z" fill="#6E685C" /><path d="m6.24 12.09-.34-.02c-.06-.07-.08-.14-.06-.2h.01l.43-.33h.02a.03.03 0 0 1 .02 0l.13.3c.02.05 0 .1-.04.16a3.88 3.88 0 0 1-.13.04c-.04 0-.05.02-.04.05Z" fill="#020303" /><path d="M5.68 11.94c.14.08.17.12.1.12l-.22-.02c-.03-.07 0-.1.12-.1Z" fill="#DFE5AD" /><path d="M9.3 13.47h-.04a.02.02 0 0 1-.01-.03c.18-.3.2-.6.23-.93v-.01h.01l.28.34c.08.22-.32.55-.48.63Z" fill="#020303" /></svg>