<?xml version='1.0' encoding='utf-8'?>
<svg xmlns="http://www.w3.org/2000/svg" width="128" height="128" viewBox="0 0 18 18"><path fill="#F0F3FA" d="M0 0h18v18H0z" /><path d="M10.18 4H8.61l3.92 6.9 1.97.7L10.18 4z" fill="url(#amgalnrpk)" /><path d="M9.82 11.67a9.6 9.6 0 0 1 3.91 1.27l.77-1.34a16.84 16.84 0 0 0-3.85-1.23l-.83 1.3z" fill="url(#bmgalnrpk)" /><path d="M7.44 4.72l-3.94 6.9.81 1.38 3.13-5.53 2.38 4.2.84-1.3-3.22-5.65z" fill="url(#cmgalnrpk)" /><defs><linearGradient id="amgalnrpk" x1="9.84" y1="4" x2="13.62" y2="11.55" gradientUnits="userSpaceOnUse"><stop stop-color="#CC1A1D" /><stop offset="1" stop-color="#990101" /></linearGradient><linearGradient id="bmgalnrpk" x1="10.3" y1="11.09" x2="14.07" y2="12.19" gradientUnits="userSpaceOnUse"><stop stop-color="#F95143" /><stop offset="1" stop-color="#D52223" /></linearGradient><linearGradient id="cmgalnrpk" x1="10.41" y1="8.57" x2="3.5" y2="8.57" gradientUnits="userSpaceOnUse"><stop stop-color="#D32021" /><stop offset="1" stop-color="#FD5647" /></linearGradient></defs></svg>