<?xml version='1.0' encoding='utf-8'?>
<svg xmlns="http://www.w3.org/2000/svg" width="128" height="128" viewBox="0 0 18 18"><path fill="#F0F3FA" d="M0 0h18v18H0z" /><path d="M10.35 5.02c-.9 1.37-1.67 3-1.8 4.64a2.03 2.03 0 0 0 .02.48h-.02c-.24-.7-.4-1.37-.52-2.03 0-.03 0-.06.02-.09a33.23 33.23 0 0 1 2.3-3Z" fill="#004827" /><path d="M3.01 10.8c.88.24 1.6.4 2.15.49 1.25.19 2.52.25 3.8.2a8.8 8.8 0 0 0 1.2-.2c.9-.18 2.1-.62 2.75-1.37.61-.68.64-1.4.1-2.14-.65-.87-2.09-1.36-3.11-1.48a.01.01 0 0 1 0-.02v-.03c.9.02 1.73.12 2.49.32.97.25 2.16.8 2.51 1.84.6 1.73-1.6 2.76-2.83 3.1a13.34 13.34 0 0 1-9.07-.7v-.01h.01Z" fill="#004827" /><path d="m7.85 7.13-.6.07c-.83.09-1.88.4-2.36 1.1-.25.4-.04.91.26 1.18.53.49 1.25.7 2 .85 1.3.27 2.62.28 3.95.03-1 .32-2 .47-2.97.45-.92-.02-1.84-.16-2.75-.43-.68-.2-1.58-.57-1.92-1.2-.24-.45.03-.93.39-1.21.6-.47 1.46-.68 2.2-.78a9.07 9.07 0 0 1 1.8-.06Z" fill="#E7AB00" /></svg>