<?xml version='1.0' encoding='utf-8'?>
<svg xmlns="http://www.w3.org/2000/svg" width="128" height="128" viewBox="0 0 18 18"><path fill="#F0F3FA" d="M0 0h18v18H0z" /><path fill="#FF0" d="M2.25 10.68h13.39v2.11H2.25z" /><path d="M6.9 5.13h-.48v-.38h9.56v5.88h-.35V8.87h-1.4v1.76h-.35V8.87h-1.4v1.76h-.34V8.87h-1.4v1.76h-.35V8.87h-1.4v1.76h-.35V8.87H7.57V8.5h1.07V7H6.9V5.12Zm.34 0v1.5h1.4v-1.5h-1.4Zm1.75 0v1.5h1.4v-1.5h-1.4Zm1.75 0v1.5h1.4v-1.5h-1.4Zm1.75 0v1.5h1.4v-1.5h-1.4Zm1.74 0v1.5h1.4v-1.5h-1.4ZM15.63 7h-1.4v1.5h1.4V7Zm-1.75 1.5V7h-1.4v1.5h1.4Zm-1.74 0V7h-1.4v1.5h1.4Zm-1.75 0V7h-1.4v1.5h1.4Z" /><path fill-rule="evenodd" d="M15.63 10.75H2.35v1.88h13.28v-1.88ZM2 10.37V13h13.98v-2.63H2Z" /><path d="M6.59 4.83a2.62 2.62 0 0 1 .17.4h.02v.04c.05.16.14.38.27.69l.42 1.06.02.04.02.02v.05l.57 1.43.16.41.5 1.24.1.27a.02.02 0 0 1 0 .02l-.02.01H7.4L6.28 5.64v-.01l-.01-.01a.02.02 0 0 0-.03 0c-.07.33-.3.39-.56.45-.34.09-.8-.3-.95-.6a19.78 19.78 0 0 1-.13-.24.08.08 0 0 0-.04-.01H2.36l-.01.02v.77l.01.01h.02c.63 0 1.14.39 1.26 1.05.15.84-.48 1.4-1.22 1.42-.01 0-.02 0-.02.02v.51H3.23a1508.52 1508.52 0 0 1 1.4-2.6.24.24 0 0 1 .1-.11h.05c.23.06.1.5.04.67l-1.18 3.5c-.38.04-.76.03-1.13-.02l.4-.93a.01.01 0 0 0 0-.02H2.4c-.24.01-.37-.22-.39-.45a3.78 3.78 0 0 1 .03-.9l.02-.02a.3.3 0 0 1 .15-.05c.25 0 .4-.01.46-.02.52-.1.7-.52.6-1.04-.14-.63-.76-.62-1.24-.52h-.01L2 6.5V6.5L2 6.48V5.01c0-.26.57-.26.73-.26H4.6l.02-.04.02-.02c.24-.44.52-.75 1.04-.68.25.03.45.13.62.28a1 1 0 0 1 .29.54Zm-.54.22a.55.55 0 0 0-.14-.38.47.47 0 0 0-.34-.15.47.47 0 0 0-.34.15.53.53 0 0 0-.14.38.56.56 0 0 0 .14.37c.04.04.1.08.15.1a.45.45 0 0 0 .53-.1c.1-.1.14-.24.14-.37Z" fill="#FC7216" /><path d="M5.57 5.57c.27 0 .48-.24.48-.52 0-.3-.21-.53-.48-.53s-.49.24-.49.53c0 .28.22.52.49.52Z" fill="#FF0" /><path d="M7.39 10.5h-.45a182.18 182.18 0 0 0-.81-4.12c-.02-.04-.05-.08-.11-.12a.05.05 0 0 0-.05 0c-.09.05-.13.1-.13.22l-.12 4.02h-.5l.3-3.58c.01-.18 0-.34-.02-.5 0-.05-.03-.08-.08-.08-.16-.03-.22.15-.26.29L4.13 10.5h-.5c.4-1.17.8-2.33 1.18-3.5.05-.18.2-.62-.04-.69h-.05a.24.24 0 0 0-.1.12 1515.93 1515.93 0 0 0-1.4 2.6.08.08 0 0 1-.04 0H2.36V8.5c.76-.02 1.43-.58 1.28-1.42a1.21 1.21 0 0 0-1.27-1.04l-.01-.01a.03.03 0 0 1-.01-.02v-.75c0-.05.03-.05.03-.05h2.16a.2.2 0 0 1 .06.03c.01.01.03.02.03.04l.1.2c.35.7 1.24.56 1.51.15h.02a.02.02 0 0 1 .02 0v.02l1.1 4.85ZM4.54 5.87c0-.11-.04-.22-.11-.3a.37.37 0 0 0-.27-.11c-.1 0-.2.04-.27.12a.43.43 0 0 0-.11.29c0 .1.04.21.11.29.07.07.17.12.27.12s.2-.05.27-.12a.43.43 0 0 0 .1-.3Z" fill="#FF0" /><path d="M4.16 6.28c.2 0 .38-.19.38-.41 0-.23-.17-.41-.38-.41s-.38.18-.38.4c0 .23.17.42.38.42ZM6.94 10.5H5.72l.12-4.02c0-.13.04-.17.13-.22a.05.05 0 0 1 .05 0c.06.04.1.08.1.12.05.15.11.46.2.9.22 1.07.42 2.14.62 3.22ZM5.23 10.5h-1.1l1.03-3.87c.04-.14.1-.32.26-.3.05.01.08.04.08.1.03.15.03.31.02.49l-.3 3.58ZM3 11h12v1H3z" fill="#FC7216" /></svg>