<?xml version='1.0' encoding='utf-8'?>
<svg xmlns="http://www.w3.org/2000/svg" width="128" height="128" viewBox="0 0 18 18"><path fill="#F0F3FA" d="M0 0h18v18H0z" /><path d="M11.66 4.5c2.09 0 2.42 3.05 2.33 4.58 0 .13.06 4.42-2.52 4.42-.98 0-2.38-.67-3.6-1.42-1.5-.93-2.74-1.76-2.74-2.98 0-1.2 1.3-2.27 2.88-3.26 1.2-.75 2.54-1.34 3.65-1.34Z" fill="url(#a)" /><path d="M6.34 4.5C4.25 4.5 3.92 7.55 4 9.08c0 .13-.06 4.42 2.52 4.42.98 0 2.38-.67 3.6-1.42 1.5-.93 2.74-1.76 2.74-2.98 0-1.2-1.3-2.27-2.88-3.26-1.2-.75-2.54-1.34-3.65-1.34Z" fill="url(#b)" /><path opacity=".5" fill="#F0F3FA" d="M6 8h6v2H6z" /><defs><linearGradient id="a" x1="8.67" y1="6.92" x2="13.06" y2="8.84" gradientUnits="userSpaceOnUse"><stop stop-color="#9B1D20" /><stop offset="1" stop-color="#BD2124" /></linearGradient><linearGradient id="b" x1="8.44" y1="4.5" x2="10.96" y2="9.77" gradientUnits="userSpaceOnUse"><stop stop-color="#DE2429" /><stop offset="1" stop-color="#9B1D20" /></linearGradient></defs></svg>