<?xml version='1.0' encoding='utf-8'?>
<svg xmlns="http://www.w3.org/2000/svg" width="128" height="128" viewBox="0 0 18 18"><path fill="#F0F3FA" d="M0 0h18v18H0z" /><path d="m14 4-.58 2.03c-.07.25-.14.42-.2.5-.14.2-.33.34-.56.42-.12.04-.32.06-.59.05h-.57l-.03.01-1.12 4c-.08.27-.15.44-.2.53a1.1 1.1 0 0 1-.55.4c-.12.05-.3.07-.53.06a39.53 39.53 0 0 0-.67-.02L9.52 8c.06-.26.14-.45.21-.55.14-.2.32-.33.55-.4.11-.05.3-.06.56-.05h.61c.02 0 .03-.02.03-.03.17-.6.4-1.36.55-1.93.08-.28.15-.47.23-.58.17-.26.42-.4.76-.46H14Z" fill="#0067B1" /><path d="m6.84 9.8.25-.86c.08-.26.15-.44.22-.52.12-.16.3-.29.5-.37.12-.04.3-.05.53-.05a126.21 126.21 0 0 0 .7.02 134.38 134.38 0 0 0-.9 3.04 1.8 1.8 0 0 1-.21.52c-.13.16-.3.29-.52.37a1.5 1.5 0 0 1-.51.05 131.02 131.02 0 0 0-.7-.02l.64-2.17ZM4 12v-.02l.6-2.05c.07-.23.13-.39.19-.47.13-.2.31-.32.54-.4.12-.05.3-.07.55-.06a38.72 38.72 0 0 0 .66.02 308.7 308.7 0 0 0-.6 2.06 1.5 1.5 0 0 1-.2.47c-.13.19-.3.32-.52.4-.1.03-.29.05-.56.05H4Z" fill="#ED1C24" /></svg>