<?xml version='1.0' encoding='utf-8'?>
<svg xmlns="http://www.w3.org/2000/svg" width="128" height="128" viewBox="0 0 18 18"><path fill="#F0F3FA" d="M0 0h18v18H0z" /><path fill="#171717" d="M4 4h10v10H4z" /><path d="M6.75 9.95 8 8.28v3.24L6.75 13.2V9.95ZM8.38 9.95l1.24-1.67v3.24L8.38 13.2V9.95ZM10 9.95l1.25-1.67v3.24L10 13.2V9.95Z" fill="#FFFDFF" /><ellipse cx="9" cy="9.02" rx="4.38" ry="2.01" fill="#EF2E29" /><path d="M6.75 6.55 8 4.88v3.24L6.75 9.79V6.55ZM8.38 6.55l1.24-1.67v3.24L8.38 9.79V6.55ZM10 6.55l1.25-1.67v3.24L10 9.79V6.55Z" fill="#FFFDFF" /></svg>