<?xml version='1.0' encoding='utf-8'?>
<svg xmlns="http://www.w3.org/2000/svg" width="128" height="128" viewBox="0 0 18 18"><path fill="#F0F3FA" d="M0 0h18v18H0z" /><path d="M6.79 4c.36.18.64.43.84.7h4.32V6H10v5.7H8v-1.36c-.7 1.08-2.24 1.33-3.01 1.33-.48 0-.8-.06-.99-.13v.63h8.3V4H6.79ZM4 7.86v2.08c.22.1.56.2.99.2.8 0 1.33-.35 1.33-.86 0-.52-.45-.97-1.39-1.07-.4-.05-.7-.2-.93-.35ZM13 4v8.17h1v-7.9a.26.26 0 0 0-.26-.27H13Zm1 8.33h-1v.1h1v-.1Zm0 .67h-1v1h.74c.14 0 .26-.12.26-.26V13Zm-1.7 1v-1H4v.74c0 .14.12.26.26.26h8.04ZM4 12.43h8.3v-.1H4v.1Zm4-4.41V6H6.26c0-.16-.16-1.08-1.1-1.08-.96 0-1.1.63-1.1.83 0 .2 0 .94 2.12 1.21.95.12 1.5.57 1.82 1.06Z" fill="url(#a)" /><defs><linearGradient id="a" x1="4" y1="9.1" x2="14" y2="9.1" gradientUnits="userSpaceOnUse"><stop offset=".08" stop-color="#613335" /><stop offset=".37" stop-color="#8D2D2F" /><stop offset="1" stop-color="#DC2329" /></linearGradient></defs></svg>