<?xml version='1.0' encoding='utf-8'?>
<svg xmlns="http://www.w3.org/2000/svg" width="128" height="128" viewBox="0 0 18 18"><path fill="#F0F3FA" d="M0 0h18v18H0z" /><path d="M9.43 11.68c-.01-.27-.02-.52.18-.78l2.9-3.77a.32.32 0 0 1 .25-.13h3.18a.06.06 0 0 1 .05.04.06.06 0 0 1 0 .06 593.5 593.5 0 0 1-2.9 3.86c-.2.25-.18.52-.16.83v.14c0 .05-.01.07-.06.07H9.52a.09.09 0 0 1-.08-.06v-.03l-.01-.23Zm3.34-.41c0-.1.03-.19.09-.26l2.86-3.7c.04-.06.02-.08-.04-.08h-2.84a.4.4 0 0 0-.33.17c-1.03 1.4-1.96 2.64-2.81 3.74-.1.11-.1.3-.04.58 0 .03.03.05.06.05h2.98c.05 0 .07-.02.07-.07v-.43ZM2.46 7.02 3.5 7h1.74a.28.28 0 0 1 .22.11l3.04 3.92c.04.05.06.11.06.18v.73c0 .04-.02.06-.06.06H5.16a.1.1 0 0 1-.08-.04.1.1 0 0 1-.03-.08l.01-.06c.04-.33.07-.54-.16-.86L3.06 8.51 2 7.09c.05-.1.2-.11.46-.07Zm2.77 4.24v.43c0 .05.03.07.07.07h2.97c.04 0 .06-.02.07-.05.06-.27.05-.47-.04-.58-.85-1.09-1.78-2.33-2.8-3.72a.41.41 0 0 0-.34-.17H2.33c-.06 0-.08.03-.04.08L5.15 11c.05.08.08.17.08.26Zm3.8-4.17a.06.06 0 0 0-.04 0h-.01A99.2 99.2 0 0 1 7.43 9c0 .02 0 .04.02.05l1.37 1.74c.03.05.05.1.05.15v.98c0 .04.02.07.05.08L9 12l.07-.01c.04-.01.06-.04.06-.08v-.98c0-.05.02-.1.05-.15l1.38-1.73a.07.07 0 0 0 0-.1A103.7 103.7 0 0 1 9.02 7.1Z" fill="#8E5233" /></svg>