<?xml version='1.0' encoding='utf-8'?>
<svg xmlns="http://www.w3.org/2000/svg" width="128" height="128" viewBox="0 0 18 18"><path fill="#F0F3FA" d="M0 0h18v18H0z" /><path d="M14.92 5.5a.06.06 0 0 1 .06.04l.02.03v2.21l-.02.01h-.02l-.44-.92a4.62 4.62 0 0 0-.98-1.08.11.11 0 0 1-.01-.05v-.19a.05.05 0 0 1 .05-.05h1.34Z" fill="url(#a)" /><path d="M14.98 9.99a.02.02 0 0 1 0 .01H15v2.37c0 .04-.1.13-.15.13h-1.09c-.17 0-.24-.1-.2-.28.02-.1.1-.2.23-.28A4.23 4.23 0 0 0 15 9.99Z" fill="url(#b)" /><path d="M11.3 5.5c1.04.01 1.54.16 2.25.76l.06.05.05.05a3.62 3.62 0 0 1 1.07 3.08 3.52 3.52 0 0 1-2.1 2.74 3 3 0 0 1-.7.2c-.42.06-.87.07-1.37.02-.3-.04-.55-.1-.76-.21a.84.84 0 0 1-.28-.13.1.1 0 0 1-.05-.09V10.2a.03.03 0 0 1 .03-.03h.03c.59.74 1.34.99 2.24.76a2.07 2.07 0 0 0 1.43-2.56 2.15 2.15 0 0 0-1.46-1.44c-1.22-.27-2.7.67-2.74 2.01v3.52l-.04.04a.08.08 0 0 1-.05.01H7.85c-.07 0-.11-.03-.13-.07a.33.33 0 0 1-.01-.17V9.05a2.5 2.5 0 0 0-.33-1.2c-.25-.4-.65-.68-1.08-.86a2.07 2.07 0 0 0-1.91.23 2.1 2.1 0 0 0-.91 1.82 2.1 2.1 0 0 0 2.35 1.95 2.06 2.06 0 0 0 1.4-.81.03.03 0 0 1 .03.01v1.83a.07.07 0 0 1-.04.06c-.45.19-.75.3-1.17.31-.39.01-.68.05-1.05 0a3.44 3.44 0 0 1-2.98-3.05L2 9.07c-.02-.46.05-.9.2-1.33A3.48 3.48 0 0 1 5.57 5.5c1.32 0 1.94.22 2.78 1.2a.05.05 0 0 0 .05.02l.02-.01A3.44 3.44 0 0 1 11.3 5.5Z" fill="url(#c)" /><defs><linearGradient id="a" x1="14.26" y1="5.5" x2="14.26" y2="7.79" gradientUnits="userSpaceOnUse"><stop stop-color="#7DB755" /><stop offset="1" stop-color="#157A6E" /></linearGradient><linearGradient id="b" x1="14.27" y1="9.99" x2="14.27" y2="12.5" gradientUnits="userSpaceOnUse"><stop stop-color="#7EB764" /><stop offset="1" stop-color="#07826E" /></linearGradient><linearGradient id="c" x1="8.38" y1="5.48" x2="8.38" y2="12.5" gradientUnits="userSpaceOnUse"><stop stop-color="#6DB453" /><stop offset=".72" stop-color="#107368" /></linearGradient></defs></svg>