<?xml version='1.0' encoding='utf-8'?>
<svg xmlns="http://www.w3.org/2000/svg" width="128" height="128" viewBox="0 0 18 18"><path fill="#F0F3FA" d="M0 0h18v18H0z" /><path d="m2.83 11.94 1.04-.19c.98-.17 1.93-.4 2.86-.69 1.71-.54 3.1-1.3 4.18-2.29.5-.46.8-.92.9-1.37a.89.89 0 0 0-.34-.96c-.25-.2-.56-.32-.94-.38a12.26 12.26 0 0 0-2.73-.04 14.17 14.17 0 0 1 3.26-.52c1.51-.03 2.46.34 2.84 1.1.1.2.12.42.08.69-.05.23-.13.44-.26.65-.3.47-.84.95-1.61 1.42-.86.53-1.74.96-2.64 1.3-1.43.52-2.85.88-4.25 1.09a40 40 0 0 1-2.4.23v-.01c-.01-.02 0-.03.01-.03Z" fill="#C08332" /><path d="m2.55 11.3.33-.08c1-.23 1.73-.41 2.2-.55.78-.22 1.47-.47 2.07-.75.5-.23.95-.52 1.36-.86.53-.44.84-.88.93-1.31.07-.33-.01-.57-.25-.74-.3-.22-.7-.37-1.2-.43-.28-.04-.72-.06-1.3-.05h-.01c-.02 0-.02 0-.02-.03l.01-.02c.97-.2 1.93-.25 2.89-.14.41.05.77.17 1.07.37.4.27.54.61.43 1.02-.12.46-.45.88-1 1.25a11.28 11.28 0 0 1-3.96 1.73 51.5 51.5 0 0 1-3.57.62c0-.02 0-.03.02-.03Z" fill="#A7A8AC" /><path d="M2.52 10.65s-.02 0-.02-.02l.01-.02c.73-.17 1.43-.35 2.09-.55.8-.23 1.5-.56 2.1-1 .3-.22.55-.48.72-.79.32-.54.15-.9-.51-1.1a4.1 4.1 0 0 0-1.43-.13c-.02 0-.03 0-.03-.03 0-.02 0-.04.02-.04.73-.13 1.3-.18 1.7-.16.7.02 1.2.23 1.5.6l.05.12c.12.48-.15.95-.83 1.4-.82.53-1.65.91-2.5 1.13-1 .26-1.95.46-2.87.59Z" fill="#00A550" /></svg>