<?xml version='1.0' encoding='utf-8'?>
<svg xmlns="http://www.w3.org/2000/svg" width="128" height="128" viewBox="0 0 18 18" fill="none">
<rect width="18" height="18" fill="#F0F3FA" />
<path fill-rule="evenodd" clip-rule="evenodd" d="M4 12.1348V9.80995C4 9.79919 4.00002 9.78802 4.00004 9.77648C4.00045 9.56627 4.00108 9.23604 3.876 9.10713C3.83687 9.07061 3.72479 9.04232 3.65352 9.02432C3.64228 9.02149 3.63205 9.0189 3.62329 9.01659V9H5.37316V9.01659C5.36688 9.01877 5.36013 9.02107 5.35302 9.02351C5.26734 9.05285 5.12821 9.1005 5.08677 9.16033C4.99877 9.28739 4.99941 9.54592 4.99992 9.7555C4.99996 9.77119 5 9.7866 5 9.80166V12.1265C5 12.2917 5 12.4348 5.01502 12.5881C5.02145 12.6709 5.05048 12.7514 5.09982 12.8231C5.14182 12.8721 5.24864 12.9132 5.32825 12.9438C5.34464 12.9501 5.35988 12.9559 5.37316 12.9613V13H3.62329V12.9806C3.63689 12.9765 3.65451 12.9718 3.67428 12.9665C3.74872 12.9465 3.85364 12.9183 3.88929 12.8834C3.93442 12.8394 3.96541 12.7862 3.97929 12.7291C4.00301 12.6401 4.00165 12.4272 4.00048 12.2439C4.00024 12.2058 4 12.169 4 12.1348ZM6.4375 12.2812V9.67198C6.45687 9.34003 6.41337 9.18355 6.11792 9.01859V9.00266H7.31254C7.35216 9.1032 7.41495 9.19397 7.49628 9.26826L8.99997 10.9844V9.67995C8.99997 9.38231 8.96722 9.14247 8.66663 9.01594V9H10.375V9.01594C10.1051 9.17397 9.99997 9.41405 9.99997 9.70651V13C9.83454 12.96 9.71351 12.8887 9.57765 12.7902C9.45361 12.6891 9.33989 12.577 9.238 12.4555L7.4375 10.5781V12.3174C7.4361 12.4181 7.4614 12.5186 7.48623 12.6172L7.49628 12.6574C7.51089 12.7281 7.54446 12.794 7.59371 12.8486C7.63138 12.8878 7.69547 12.9241 7.75371 12.957L7.75371 12.957C7.78027 12.972 7.80562 12.9864 7.82668 13H6.11792V12.9745C6.23273 12.9248 6.34495 12.837 6.39705 12.7275C6.44117 12.6096 6.43963 12.4859 6.43808 12.3612V12.3611V12.3611C6.43779 12.3381 6.4375 12.315 6.4375 12.2919V12.2812ZM10.9998 12.3664V9.5722C10.9998 9.2645 10.9303 9.07323 10.7334 9.01779V9.00116H12.5984C14.1406 9.00116 14.9999 9.66674 14.9999 10.9903C14.9999 12.3664 13.9219 12.9985 12.5132 12.9985H10.7305V12.9791C10.9695 12.8246 10.9998 12.6666 10.9998 12.3664ZM12.3844 12.3336C12.2565 12.334 12.1236 12.3345 11.9997 12.3111V9.7128C12.1825 9.67829 12.5631 9.66982 12.7497 9.6669C13.7092 9.6669 13.9997 10.3064 13.9997 11.1038C13.9997 11.978 13.3746 12.3334 12.437 12.3334L12.3844 12.3336Z" fill="#AE8243" />
<path d="M4.33432 5.78402C3.79467 6.13689 3.05701 6.69922 3.05701 6.69922C3.05701 6.69922 3.00002 6.76172 3.00002 6.84802C2.99892 6.89885 3.04027 7.0039 3.1675 7.0039C3.20883 7.00574 3.25465 6.98042 3.25465 6.98042C3.96256 6.52149 6.39268 5.20359 7.20532 5.20359C7.39837 5.20359 5.57141 6.36943 5.57141 7.13246C5.57141 7.24296 5.64276 7.33131 5.77558 7.43122C5.96329 7.5724 7.15002 6.57868 7.53877 6.4375C6.26783 8.40625 8.74994 6.54913 8.46424 7.0039C8.07989 7.61572 7.39121 8.99998 7.61905 8.99998C7.84688 8.99998 8.0616 8.34111 9.456 7.32141C9.8052 7.06605 10.3845 7.43122 11.3867 6.80372C12.7702 5.9375 13.7337 5.337 15 5.45458V5.20359C15 5.20359 14.819 4.98397 14.095 4.98397C12.8884 4.98397 11.6414 5.85937 11.3867 5.85937C11.0157 5.85937 10.9711 5.53302 11.3867 4.98397C11.5112 4.8195 11.5714 4.69683 11.5714 4.60745C11.5714 4 9.97315 5.45458 9.65035 5.45458C9.5 5.45458 10.3741 4.00001 9.83785 4C9.30155 3.99999 8.44561 4.98397 8.20718 4.98397C7.96875 4.98397 7.68213 4.73065 7.53877 4.60745C6.98739 4.13366 5.70183 4.88983 4.33432 5.78402Z" fill="#5DC2E9" />
</svg>