<?xml version='1.0' encoding='utf-8'?>
<svg xmlns="http://www.w3.org/2000/svg" width="128" height="128" viewBox="0 0 18 18"><path fill="#F0F3FA" d="M0 0h18v18H0z" /><path fill-rule="evenodd" d="m9 15-1.08-3.16-2.84 1.71 1.18-3.13L3 9.9l2.88-1.64-2.16-2.53L7 6.35V3l2 2.6L11 3v3.35l3.28-.63-2.16 2.53L15 9.9l-3.26.53 1.18 3.13-2.84-1.71L9 15Zm1.83-3.97-1.32-.8L9 11.7l-.5-1.47-1.33.8.55-1.46-1.52-.25 1.34-.77-1-1.18 1.46.3V6.1L9 7.3l1-1.21v1.56l1.47-.3-1.01 1.2 1.34.76-1.52.25.55 1.46Z" fill="#383838" /></svg>