<?xml version='1.0' encoding='utf-8'?>
<svg xmlns="http://www.w3.org/2000/svg" width="128" height="128" viewBox="0 0 18 18"><path fill="#F0F3FA" d="M0 0h18v18H0z" /><path d="M11 7.18A3.8 3.8 0 0 0 7.18 11H4.7c-.36 0-.7-.17-.7-.57V7.65c0-.3.13-.51.4-.61A.92.92 0 0 1 4.7 7H7V4.64c0-.4.17-.64.56-.64h2.96c.35 0 .48.39.48.68v2.5Z" fill="#00B1AD" /><path d="M10.98 7h.5c.03 0 .04.02.04.05a5.4 5.4 0 0 1-.4 2.21 2.77 2.77 0 0 1-2.43 1.82l-.02.01c0 .01 0 .02.02.02.73 0 1.36-.23 1.9-.7.9-.78 1.33-2.16 1.41-3.37 0-.03.02-.04.04-.04h1.14c.03 0 .04.02.04.05-.23 2.22-1.5 3.9-3.74 4.01l-.01.02.01.02c.31.02.62 0 .92-.08 1.92-.44 3-2.05 3.29-3.98 0 0 0-.02.02-.03l.03-.01h.72c.03 0 .04.01.04.04a4.1 4.1 0 0 1-3.47 4.08c-.03 0-.04.02-.04.05a2.86 2.86 0 0 1-2.03 2.71c-.57.17-1.18.1-1.91.1-.03 0-.05 0-.05-.04v-2.83a4.1 4.1 0 0 1 1.13-2.87A3.85 3.85 0 0 1 10.98 7Z" fill="#048D8C" /></svg>