<?xml version='1.0' encoding='utf-8'?>
<svg xmlns="http://www.w3.org/2000/svg" width="128" height="128" viewBox="0 0 18 18"><path fill="#F0F3FA" d="M0 0h18v18H0z" /><path d="M7 5.52h1.5a.03.03 0 0 0 .02 0 .03.03 0 0 0 .01-.02L9 4.02V4v.02l.46 1.48c0 .02 0 .02.03.02H11l-.02.02-1.2.91-.01.02v.03l.45 1.48V8L9 7.06 7.76 8l.48-1.52L7 5.53Z" fill="url(#avy5enuvt)" /><path d="m9.09 14 .3-.02a7.98 7.98 0 0 1 2.07-3.62c.46-.44.98-.83 1.54-1.16V8.13a8.81 8.81 0 0 0-4.58 5.79c.22.04.44.07.67.08Z" fill="url(#bvy5enuvt)" /><path d="M11.84 12.53c.12-.19.25-.37.39-.55.37-.64.62-1.34.72-2.06a8.79 8.79 0 0 0-2.77 3.87c.66-.27 1.23-.7 1.66-1.26Z" fill="url(#cvy5enuvt)" /><path d="M7.9 13.74a7.9 7.9 0 0 1 2.2-4.3A8.96 8.96 0 0 1 13 7.46V6.5a9.52 9.52 0 0 0-5.97 6.72c.26.21.56.39.87.52Z" fill="url(#dvy5enuvt)" /><path d="M7.89 9.44c.18-.24.38-.48.6-.7A9.46 9.46 0 0 0 5 6.5v.96a8.97 8.97 0 0 1 2.89 1.98Z" fill="url(#evy5enuvt)" /><path d="M7.02 10.87c.14-.3.3-.58.48-.86A9.6 9.6 0 0 0 5 8.13V9.2a8.71 8.71 0 0 1 2.02 1.67Z" fill="url(#fvy5enuvt)" /><path d="M6.68 11.64a8.48 8.48 0 0 0-1.63-1.72 5.5 5.5 0 0 0 1.3 2.83c.08-.38.2-.75.33-1.1Z" fill="url(#gvy5enuvt)" /><defs><linearGradient id="avy5enuvt" x1="7.73" y1="5.01" x2="10.32" y2="7.48" gradientUnits="userSpaceOnUse"><stop stop-color="#F0D084" /><stop offset="1" stop-color="#87713C" /></linearGradient><linearGradient id="bvy5enuvt" x1="8.42" y1="11.06" x2="13" y2="11.06" gradientUnits="userSpaceOnUse"><stop stop-color="#0E7F46" /><stop offset="1" stop-color="#25B463" /></linearGradient><linearGradient id="cvy5enuvt" x1="10.17" y1="11.85" x2="12.95" y2="11.85" gradientUnits="userSpaceOnUse"><stop stop-color="#0E7F46" /><stop offset="1" stop-color="#25B463" /></linearGradient><linearGradient id="dvy5enuvt" x1="6.81" y1="13.02" x2="12.96" y2="6.45" gradientUnits="userSpaceOnUse"><stop stop-color="#0E7F46" /><stop offset="1" stop-color="#25B463" /></linearGradient><linearGradient id="evy5enuvt" x1="8.48" y1="7.97" x2="5" y2="7.97" gradientUnits="userSpaceOnUse"><stop stop-color="#0E7F46" /><stop offset="1" stop-color="#25B463" /></linearGradient><linearGradient id="fvy5enuvt" x1="7.5" y1="9.5" x2="5" y2="9.5" gradientUnits="userSpaceOnUse"><stop stop-color="#0E7F46" /><stop offset="1" stop-color="#25B463" /></linearGradient><linearGradient id="gvy5enuvt" x1="6.68" y1="11.33" x2="5.05" y2="11.33" gradientUnits="userSpaceOnUse"><stop stop-color="#0E7F46" /><stop offset="1" stop-color="#25B463" /></linearGradient></defs></svg>