<?xml version='1.0' encoding='utf-8'?>
<svg xmlns="http://www.w3.org/2000/svg" width="128" height="128" viewBox="0 0 18 18" fill="none">
<rect width="18" height="18" fill="#F0F3FA" />
<path d="M3.05161 10.9288C3.03607 10.9158 3.02346 10.8999 3.01457 10.8819C3.00569 10.8639 3.00072 10.8443 3 10.8243V9.10486C3.00072 9.08489 3.00569 9.06528 3.01457 9.04728C3.02346 9.02929 3.03607 9.0133 3.05161 9.00032L4.36394 8.01624C4.37898 8.00568 4.39703 8 4.41555 8C4.43407 8 4.45212 8.00568 4.46716 8.01624L8.44839 10.9681C8.46393 10.9811 8.47654 10.997 8.48543 11.015C8.49431 11.033 8.49928 11.056 8.5 11.0759V13.9351C8.5 13.9523 8.49301 13.9688 8.48057 13.981C8.46812 13.9932 8.45124 14 8.43365 14H7.03284C6.99052 13.9977 6.94968 13.984 6.91488 13.9603L3.05161 10.9288Z" fill="#4C4F54" />
<path d="M14.9484 10.9288C14.9639 10.9158 14.9765 10.8999 14.9854 10.8819C14.9943 10.8639 14.9993 10.8443 15 10.8243V9.10486C14.9993 9.08489 14.9943 9.06528 14.9854 9.04728C14.9765 9.02929 14.9639 9.0133 14.9484 9.00032L13.6361 8.01624C13.621 8.00568 13.603 8 13.5845 8C13.5659 8 13.5479 8.00568 13.5328 8.01624L9.55161 10.9681C9.53607 10.9811 9.52346 10.997 9.51457 11.015C9.50569 11.033 9.50072 11.056 9.5 11.0759V13.9351C9.5 13.9523 9.50699 13.9688 9.51943 13.981C9.53188 13.9932 9.54876 14 9.56635 14H10.9672C11.0095 13.9977 11.0503 13.984 11.0851 13.9603L14.9484 10.9288Z" fill="#BCDD2A" />
<path d="M8.49959 8.93896C8.49961 8.94728 8.49782 8.9555 8.49435 8.96314C8.49089 8.97078 8.4858 8.97766 8.47942 8.98337C8.47303 8.98907 8.46548 8.99348 8.45722 8.99633C8.44897 8.99917 8.44019 9.00038 8.43142 8.99989H8.26099C8.21718 8.9964 8.17524 8.98151 8.1398 8.95688L6.05302 7.48675C6.03706 7.47385 6.0241 7.45795 6.01497 7.44006C6.00584 7.42216 6.00074 7.40267 6 7.38281V5.55316C6.00316 5.51342 6.0221 5.47628 6.05302 5.44922L8.12087 4.03584C8.15665 4.01286 8.19881 4.0004 8.24206 4H8.43142C8.44122 4.00044 8.45082 4.00276 8.45964 4.00684C8.46845 4.01092 8.47629 4.01666 8.48268 4.02371C8.48906 4.03075 8.49386 4.03897 8.49676 4.04783C8.49967 4.0567 8.50064 4.06604 8.49959 4.07527V8.93896Z" fill="#4C4F54" />
<path d="M9.50041 8.93896C9.50039 8.94728 9.50218 8.9555 9.50565 8.96314C9.50911 8.97078 9.5142 8.97766 9.52058 8.98337C9.52697 8.98907 9.53452 8.99348 9.54278 8.99633C9.55103 8.99917 9.55981 9.00038 9.56858 8.99989H9.73901C9.78282 8.9964 9.82476 8.98151 9.8602 8.95688L11.947 7.48675C11.9629 7.47385 11.9759 7.45795 11.985 7.44006C11.9942 7.42216 11.9993 7.40267 12 7.38281V5.55316C11.9968 5.51342 11.9779 5.47628 11.947 5.44922L9.87913 4.03584C9.84335 4.01286 9.80119 4.0004 9.75794 4H9.56858C9.55878 4.00044 9.54918 4.00276 9.54036 4.00684C9.53155 4.01092 9.52371 4.01666 9.51732 4.02371C9.51094 4.03075 9.50614 4.03897 9.50324 4.04783C9.50033 4.0567 9.49936 4.06604 9.50041 4.07527V8.93896Z" fill="#BCDD2A" />
</svg>