<?xml version='1.0' encoding='utf-8'?>
<svg xmlns="http://www.w3.org/2000/svg" width="128" height="128" viewBox="0 0 18 18" fill="none">
<rect width="18" height="18" fill="#F0F3FA" />
<path d="M9.00001 2L8 6.6875L5 4.8L6.65625 8L2 9L6.65625 10L5 13.2L8 11.25L9.00001 16L10 11.25L13 13.2L11.25 10L16 9L11.25 8L13 4.8L10 6.6875L9.00001 2Z" fill="#D8C9AC" />
<path fill-rule="evenodd" clip-rule="evenodd" d="M9 8.99996V9L6.67188 9.99998L5 13.2L9 9L8 11.25L9 16V9L9.00003 8.99999L9.00005 9H9.00001L9.00007 9.00003L9.00527 9.00243L10.0001 11.25L12.9999 13.2L9.00741 9.00341L11.1719 10L16 9.00005L9.00006 9L9.00005 8.99998L11.25 8.00002L13 4.79995L9.00004 8.99996L9.00003 8.99993L10 6.67188L9 2V8.99987L8 6.67189L4.99992 4.80005L9 8.99996ZM9 9L9.00001 8.99997L9.00002 8.99998L9 9ZM8.99999 9H2L6.60939 7.99995L8.99999 9Z" fill="#8D8474" />
</svg>