<?xml version='1.0' encoding='utf-8'?>
<svg xmlns="http://www.w3.org/2000/svg" width="128" height="128" viewBox="0 0 18 18"><path fill="url(#aug3jjgjn)" d="M0 0h18v18H0z" /><path d="M5.86 5.11c.54.2 1.18.38 1.58.3.49-.1 1.9-.72 2.97-1.2a5 5 0 0 0-4.55.9Zm-.93 1c-.25.34-.45.71-.6 1.12.2.27.48.52.76.52l-.44.42-.65.61a5.09 5.09 0 0 0 .55 2.5c.22.12.48.22.7.22h.94c-.26.15-.7.46-.94.81a5 5 0 0 0 2.26 1.46c.36-.15.78-.32 1.02-.4.38-.12 1.51-.36 2.03-.46-.42.12-1.25.49-1.82 1.08L9 14a5 5 0 0 0 4.62-3.07c-.62 0-1.57.15-2.12.26l2.37-1.06a5.01 5.01 0 0 0-.07-2.53c-1.43.45-3.76 1.18-4.64 1.4-1 .25-2.5.52-3.13.63L8.84 7.9c.26-.06.94-.22 1.57-.47.5-.2 1.89-.7 2.86-1.05a5.02 5.02 0 0 0-2.02-1.86c-.6.24-1.4.54-1.94.72-.75.25-2.29 1.04-2.97 1.4a4.04 4.04 0 0 1-1.41-.55Z" fill="#7D8380" /><path d="M13.81 10.37a5 5 0 0 0 0-2.75c-.99.5-2.68 1.34-4.34 2-1.7.68-3.47 1.87-4.3 2.6a5 5 0 0 0 2.4 1.57l.37-.32c.68-.61 1.57-1.42 2.47-1.81.98-.44 2.35-1.03 3.4-1.3Zm-.18.51c-.2.05-.62.34-1.08.65-.42.28-.86.58-1.2.75-.78.39-2.32 1.39-2.65 1.71L9 14a5 5 0 0 0 4.63-3.12Zm-9.1.37A4.98 4.98 0 0 1 4 8.81c.7-.75 1.95-2.04 3.44-2.78 1.5-.75 2.9-1.3 3.82-1.5.81.42 1.5 1.05 1.98 1.82-1.08.05-2.08.4-2.99.78-1.71.7-4.73 3.12-5.71 4.12Zm5.9-7.04a5 5 0 0 0-6.1 3C5.3 6.45 7 5.26 8.06 4.78c.74-.33 1.66-.5 2.38-.57Z" fill="#E46717" /><defs><linearGradient id="aug3jjgjn" x1="3.35" y1="3.12" x2="21.9" y2="24.43" gradientUnits="userSpaceOnUse"><stop stop-color="#1A1E21" /><stop offset="1" stop-color="#06060A" /></linearGradient></defs></svg>