<?xml version='1.0' encoding='utf-8'?>
<svg xmlns="http://www.w3.org/2000/svg" width="128" height="128" viewBox="0 0 18 18"><path fill="#F0F3FA" d="M0 0h18v18H0z" /><path d="M9 11c0 .3-.66 1.24-1 1.57h1.5c.12-.46.25-1.55.25-1.86 0-.3-.17-.55-.24-.63l-.68.5c.08.04.17.12.17.42ZM8.94 9.45l-.56.38s-.11-.13-.23-.5c-.1-.35 0-.71.12-.88.26-.33.85-1.05 1.12-1.25.34-.26.44-.32 1.11-.2.54.1.85.5 1 .71l-.75.43-.5-.57a.58.58 0 0 0-.74-.12c-.2.16-.61.57-.8.87a.77.77 0 0 0 0 .76l.23.37Z" fill="#4F792D" /><path d="M10.62 6.29c-.37.14-1.24.56-1.62.85.22-.7 1.45-1.71 2.12-1.71.55 0 1.13.28 1.43.51l-.8.63c-.23-.17-.78-.41-1.13-.28ZM9.5 4a5.12 5.12 0 0 0-.75 2.29c0-.72-.52-2.02-.82-2.29H9.5ZM6.46 5.43c-.27 0-1.09.14-1.35.39l.64.75s.34-.2.75-.28c.9-.2 1.7.48 2 .85-.9-1.63-1.7-1.71-2.04-1.71ZM11.5 12.5H5v.5h6.5v-.5ZM5.5 14v-.5H12v.5H5.5Z" fill="#4F792D" /><path d="m6.5 4.14-.38 1c1.36.1 2.15 1.01 2.37 1.55 0-1.26-1.43-2.25-1.99-2.55ZM10.75 4.19A2.9 2.9 0 0 0 9 6.69c.72-1.5 1.92-1.59 2.38-1.55l-.63-.95ZM6.63 8l-.75-.57c.22-.21.74-.57 1.37-.57.63 0 1.13.55 1.24.84a1.8 1.8 0 0 0-.87-.27c-.27 0-.77.32-1 .57ZM9.88 9.14c0-.3-.49-.73-.71-.94.15.25.46.8.33.94-.11.13-.44.44-.78.69-.3.22-1.02.88-1.02 1.25 0 .3.38.63.57.75-.08-.16-.2-.55-.12-.75.12-.25.72-.8 1.13-1.13.39-.3.6-.43.6-.8ZM5 12v-1l2-2.5h1L5 12ZM11.5 8.5h-1L13 13v-2l-1.5-2.5Z" fill="#BFA301" /></svg>