<?xml version='1.0' encoding='utf-8'?>
<svg xmlns="http://www.w3.org/2000/svg" width="128" height="128" viewBox="0 0 18 18"><path fill="#F0F3FA" d="M0 0h18v18H0z" /><circle cx="9" cy="9" r="6" fill="url(#aw0tq1jfz)" /><circle cx="9" cy="9.11" r="3.09" fill="#E46179" /><path d="M3.64 10.25l.56-.2.02.05a.6.6 0 0 0-.28.3.47.47 0 0 0-.03.34.3.3 0 0 0 .13.18.2.2 0 0 0 .27-.04.45.45 0 0 0 .08-.15c.02-.05.03-.15.06-.32.03-.23.08-.4.14-.49a.5.5 0 0 1 .68-.15c.14.07.24.2.3.37l.03.15V10.6l.05.07c.03.02.06.03.1.03l.01.05-.64.2-.01-.04c.17-.1.28-.2.34-.34a.53.53 0 0 0 .03-.39.33.33 0 0 0-.15-.2.25.25 0 0 0-.2-.02.24.24 0 0 0-.1.07.37.37 0 0 0-.08.13 1.5 1.5 0 0 0-.06.27 2.1 2.1 0 0 1-.08.4.63.63 0 0 1-.13.21.47.47 0 0 1-.2.13.48.48 0 0 1-.4-.04.55.55 0 0 1-.26-.32.67.67 0 0 1-.02-.33v-.13a.07.07 0 0 0-.04-.05h-.1l-.02-.04zM14.09 11.13a.89.89 0 0 1-1.25.43.95.95 0 0 1-.44-.45.88.88 0 0 1 .04-.82.9.9 0 0 1 1.27-.4.89.89 0 0 1 .38 1.24zm-.08-.02c.07-.15.06-.3-.05-.45a1.33 1.33 0 0 0-.48-.36c-.27-.14-.49-.2-.67-.17a.37.37 0 0 0-.28.2.38.38 0 0 0-.04.24c.01.09.06.18.15.28.09.1.22.19.4.28.2.1.37.17.5.18.12.02.22 0 .3-.03a.4.4 0 0 0 .17-.17zM12.35 7.54l.04-.02.02.05c.02.05.04.09.06.1.03.03.06.04.09.04l.16-.04 1.1-.4a.59.59 0 0 0 .15-.08.13.13 0 0 0 .04-.08c0-.03 0-.07-.02-.12l-.02-.05.05-.02.27.75c.08.2.11.37.1.51a.76.76 0 0 1-.18.45.96.96 0 0 1-.41.28.97.97 0 0 1-.35.07.8.8 0 0 1-.3-.06.78.78 0 0 1-.23-.15 1.19 1.19 0 0 1-.3-.49l-.27-.74zm1.8.05l-1.3.48a.49.49 0 0 0-.12.06.07.07 0 0 0-.02.05l.01.1a.4.4 0 0 0 .26.26c.16.05.38.03.64-.07.22-.08.38-.17.48-.29a.46.46 0 0 0 .13-.28.85.85 0 0 0-.07-.3zM9.47 5.37v.05h-.94v-.05h.06c.05 0 .1 0 .13-.02a.12.12 0 0 0 .05-.07.54.54 0 0 0 .02-.16V3.94c0-.09-.01-.14-.02-.17a.13.13 0 0 0-.06-.06.23.23 0 0 0-.12-.02h-.06v-.05h.94v.05H9.4c-.05 0-.1 0-.13.03a.13.13 0 0 0-.05.06.54.54 0 0 0-.02.16v1.18c0 .09 0 .14.02.17 0 .02.03.04.06.06l.12.02h.06zM5.48 4.96l1.4.2-.53-.56c-.07-.08-.13-.12-.18-.13-.07 0-.13.03-.2.1l-.04-.04.43-.4.03.03a.44.44 0 0 0-.08.13v.1c.02.03.05.08.11.14l1.02 1.08-.03.03-1.9-.25.78.83c.07.07.14.1.2.1.05 0 .1-.03.15-.07l.03-.03.03.03-.46.44-.03-.04c.07-.07.1-.13.1-.18 0-.06-.02-.12-.09-.19l-.86-.91-.06-.01c-.06-.01-.1-.01-.14 0a.3.3 0 0 0-.1.07l-.04-.04.46-.43zM12.13 4.61l.06 1.41.45-.62c.07-.09.1-.15.1-.2-.01-.07-.05-.13-.14-.19l.03-.04.48.35-.03.04a.44.44 0 0 0-.14-.06c-.03 0-.06 0-.1.03a.52.52 0 0 0-.12.13l-.87 1.2-.03-.03-.11-1.9-.66.91c-.06.09-.09.16-.07.21.02.06.05.1.1.14l.03.02-.02.04-.52-.37.03-.04c.08.06.15.08.2.08.06-.01.11-.06.17-.13l.73-1.02V4.5l-.02-.14a.3.3 0 0 0-.1-.1l.04-.03.51.37zM3.55 8.31l.33-.86.04.02-.02.04a.32.32 0 0 0-.02.14c0 .03.01.06.03.08l.17.08.82.3a.9.9 0 0 0 .31.08.3.3 0 0 0 .16-.06.4.4 0 0 0 .12-.18.45.45 0 0 0 .03-.25.4.4 0 0 0-.11-.21 1.08 1.08 0 0 0-.36-.19l-.68-.25A.42.42 0 0 0 4.2 7a.15.15 0 0 0-.09.03.37.37 0 0 0-.08.15l-.05-.02.22-.57.04.01-.01.04a.24.24 0 0 0-.02.12c.01.04.03.08.06.1.03.02.07.05.14.07l.63.24c.2.07.34.14.41.2a.5.5 0 0 1 .17.28c.04.13.02.28-.04.45a.83.83 0 0 1-.19.31.53.53 0 0 1-.28.15c-.1.02-.22 0-.36-.05l-.82-.31a.61.61 0 0 0-.18-.05.13.13 0 0 0-.08.03.36.36 0 0 0-.07.14l-.05-.02z" fill="#DD5065" /><path d="M6.7 11.29c-.1.48.33.58.53.56a.4.4 0 0 0 .19.3c.08.05.33.03.44.02.2.29.5.2.62.13.32.15.9.06 1.16 0 .03.03.13.07.28.06.15-.01.28-.17.32-.25.06.03.22.07.36 0 .15-.06.19-.23.2-.3a.5.5 0 0 0 .39-.1c.08-.09.18-.34-.06-.62-.23-.28-.7-.3-.9-.28.32-.27.45-.62.48-.75.07 0 .2.04.24.06-.04-.1-.18-.19-.24-.22v-.14c.1 0 .24.05.3.08-.14-.16-.27-.24-.3-.24-.04-.36-.2-.62-.29-.71.77.17 1.3-.18 1.46-.37.51-.64.24-1.25.04-1.48-.19-.28-.87-.6-1.44-.31a1.2 1.2 0 0 0-.63 1.14c-.75-.47-1.5-.2-1.78 0 0-.69-.35-1.03-.53-1.11-.31-.19-1.2-.25-1.57.37-.47.77.03 1.5.47 1.7.36.16.84.1 1.04.06-.2.24-.27.58-.28.71-.12.09-.2.2-.24.24a.96.96 0 0 1 .24-.1l.03.16a.44.44 0 0 0-.25.22c.07-.05.2-.06.25-.06.06.3.33.63.46.75-.28-.04-.87 0-.99.48z" fill="url(#bw0tq1jfz)" /><path d="M8.47 11.8c-.02-.44-.4-.68-.58-.75-.47-.15-.83 0-.95.18-.19.4.13.47.3.45.06.5.61.33.65.33.07.15.6.35.58-.2z" fill="url(#cw0tq1jfz)" /><path d="M9.45 11.8c.02-.44.4-.68.58-.75.46-.15.83 0 .94.18.2.4-.12.47-.29.45-.06.5-.62.33-.65.33-.07.15-.6.35-.58-.2z" fill="url(#dw0tq1jfz)" /><ellipse cx="9" cy="10.01" rx=".21" ry=".16" fill="#FEA2D0" /><ellipse cx="6.96" cy="7.79" rx=".75" ry=".6" transform="rotate(30.38 6.96 7.79)" fill="url(#ew0tq1jfz)" /><ellipse rx=".75" ry=".6" transform="scale(-1 1) rotate(30.38 -19.8 -16.32)" fill="url(#fw0tq1jfz)" /><rect x="8.42" y="8.68" width=".59" height=".69" rx=".29" transform="rotate(51.62 8.42 8.68)" fill="#fff" /><rect x="8.4" y="8.82" width=".4" height=".48" rx=".2" transform="rotate(51.62 8.4 8.82)" /><rect width=".6" height=".71" rx=".3" transform="scale(-1 1) rotate(51.62 -13.71 -5.49)" fill="#fff" /><circle cx="8.32" cy="9.13" r=".07" fill="#fff" /><rect width=".42" height=".49" rx=".21" transform="scale(-1 1) rotate(51.62 -13.9 -5.46)" /><circle cx="9.6" cy="9.15" r=".08" fill="#fff" /><defs><linearGradient id="aw0tq1jfz" x1="9" y1="3" x2="9" y2="15" gradientUnits="userSpaceOnUse"><stop stop-color="#FEDCB7" /><stop offset="1" stop-color="#FDCD9D" /></linearGradient><linearGradient id="bw0tq1jfz" x1="8.98" y1="6.62" x2="8.98" y2="12.39" gradientUnits="userSpaceOnUse"><stop stop-color="#CCCEC7" /><stop offset=".28" stop-color="#827E7B" /><stop offset=".52" stop-color="#A09D98" /><stop offset=".71" stop-color="#A19D9A" /><stop offset="1" stop-color="#524E4B" /></linearGradient><linearGradient id="cw0tq1jfz" x1="7.68" y1="10.99" x2="7.96" y2="12.17" gradientUnits="userSpaceOnUse"><stop stop-color="#D3D4CF" /><stop offset="1" stop-color="#979394" /></linearGradient><linearGradient id="dw0tq1jfz" x1="10.64" y1="10.99" x2="10.24" y2="12.17" gradientUnits="userSpaceOnUse"><stop stop-color="#979797" /><stop offset="1" stop-color="#9A9695" /></linearGradient><linearGradient id="ew0tq1jfz" x1="6.16" y1="7.73" x2="7.73" y2="7.8" gradientUnits="userSpaceOnUse"><stop stop-color="#FDFEF9" /><stop offset="1" stop-color="#BDBEB9" /></linearGradient><linearGradient id="fw0tq1jfz" x1=".11" y1=".57" x2="1.35" y2=".66" gradientUnits="userSpaceOnUse"><stop stop-color="#FCFDF9" /><stop offset="1" stop-color="#C8C9C4" /></linearGradient></defs></svg>