<?xml version='1.0' encoding='utf-8'?>
<svg xmlns="http://www.w3.org/2000/svg" width="128" height="128" viewBox="0 0 18 18"><path fill="#F0F3FA" d="M0 0h18v18H0z" /><path d="M6.19 7.07H4.3v.3h.16c.25 0 .52.2.47.3.36 1.13 1.12 3.5 1.25 3.85.12.35.05.54 0 .6l-.47.44 2.03.14-.47-.44c-.25-.24-.2-.5-.16-.6l.79-2.22c.52.6 1.62 1.87 1.87 2.23.25.35.1.54 0 .59l-.62.6 2.96.14-.93-.89c.62-1.92 1.9-5.87 2.03-6.22.12-.36.26-.45.31-.45H14V5l-3.44.3v.3h.94c.25 0 .31.19.31.29l-1.56 5.04L8.22 8.4c.1-.35.34-1.13.47-1.48.12-.36.36-.45.47-.45h.46v-.44L6.5 6.2v.3h.94c.25 0 .31.19.31.29L6.5 10.63l-.94-2.82c-.12-.35.05-.44.16-.44h.47v-.3Z" fill="#202F2C" /><path d="M5.88 7.07H4v.3h.16c.25 0 .52.2.46.3l1.25 3.85c.13.35.06.54 0 .6l-.46.44 2.03.14-.47-.44c-.25-.24-.21-.5-.16-.6l.78-2.22c.52.6 1.63 1.87 1.88 2.23.25.35.1.54 0 .59l-.63.6 2.97.14-.94-.89c.63-1.92 1.91-5.87 2.04-6.22.12-.36.26-.45.3-.45h.63V5l-3.28.3v.3h.63c.25 0 .31.19.31.29l-1.56 5.04L7.9 8.4c.1-.35.34-1.13.46-1.48.13-.36.37-.45.47-.45h.63v-.44l-2.97.15v.3h.63c.25 0 .3.19.3.29L6.2 10.63l-.94-2.82c-.13-.35.05-.44.16-.44h.46v-.3Z" fill="#8B1825" /></svg>