<?xml version='1.0' encoding='utf-8'?>
<svg xmlns="http://www.w3.org/2000/svg" width="128" height="128" viewBox="0 0 18 18"><path fill="#F0F3FA" d="M0 0h18v18H0z" /><path d="M14.3 9.17c0-.66-.55-1.75-.84-2.21h.3l.35-.41-.97-.35-.77.35-1.66 2.84C10.1 7.68 9 6.94 8.53 6.79c-.23.15-.72.49-.83.55a5.6 5.6 0 0 0-.63 1.04l1.46 2.07 3.16 2.54h1.29c-.8-.28-1.02-1.1-1.03-1.46.79-.51 2.36-1.7 2.36-2.36Z" fill="#F6DBCC" /><path d="M14.09 7.71c-.39-.13-.7-.76-.8-1.05.05.13.35.15.49.15l.26-.36H12.4l.25-.44c.12-.1.51-.27 1.13-.27.77 0 .86.98.57.92a.38.38 0 0 0-.42.19c.22.34.55 1 .16.86Z" fill="#FC063F" /><path fill-rule="evenodd" d="M8.87 6.73c.49.3 1.56 1.25 1.92 2.6l1.07-.75c.16.18.6.52 1.1.52.48 0 1-.4 1.22-.62l.08.3-.87.56c-.12.33-.5.99-1.03.99H11.2l-.26.87 1 .3c.06.5.36 1.48 1.11 1.48h-1.75l-1.77-1.24L7.15 8.1l.34-1.16 1.38-.2Zm2.77 2.4c.23.06.92.22 1.3.24h.25c-.13.27-.53.8-1.14.8a3 3 0 0 1-1.07-.15l.58-.9.08.01Z" fill="#E1C3B0" /><path d="M9.4 7.19C7.5 4.95 4.3 5.37 2.94 5.86c1.51-.1 2.85.22 3.33.39a5.44 5.44 0 0 0-3.77 1.4c2.33-.68 3.9-.53 4.4-.38-2.22.07-3.09 1.53-3.24 2.24 1.23-1.73 3.9-1.5 5.08-1.18a2.45 2.45 0 0 0-1.14-.8c.6.02 1.45.28 1.8.4l-.66-.66.66-.08Z" fill="#16884B" /><path d="m3.92 7.36-.6-.42 1.95-.09-.65.5 1.09 3.26 1.24-4.04-.58-.44 3.02-.14-1.27.58-.47 1.65 2.38 2.56 1.67-5.3-1.07-.36L14.48 5l-1.05.49-2.6 6.47 1.1 1.04-3.25-.25.97-.8-2.31-2.72-.97 2.73.58.65H4.62l.75-.65-1.45-4.6Z" fill="#3C2624" /><path d="m3.7 7.36-.59-.42 1.95-.09-.65.5 1.09 3.26 1.24-4.04-.58-.44 3.01-.14-1.26.58-.47 1.65 2.38 2.56 1.67-5.3-1.07-.36L14.27 5l-1.05.49-2.6 6.47 1.1 1.04-3.25-.25.97-.8-2.31-2.72-.97 2.73.58.65H4.41l.75-.65-1.45-4.6Z" fill="#E5202D" /></svg>