<?xml version='1.0' encoding='utf-8'?>
<svg xmlns="http://www.w3.org/2000/svg" width="128" height="128" viewBox="0 0 18 18"><path fill="#F0F3FA" d="M0 0h18v18H0z" /><path d="M12.7 6.16s1.3 0 1.86.57c.57.57.56 1.18.1 1.85-.53.67-1.24 1.27-1.26 1.3-.02.02-.14 0-.17-.04-.04-.04-.17-.18-.06-.26.11-.08 1.12-1 1.03-1.6-.09-.6-.16-1.21-1.63-1.44 0 0 .01-.38.14-.38ZM3.05 10.7l.75-.21s.61-1.6 3.38-2.92c0 0 .15-.25-.21-.16-.35.12-3.3 1.5-3.92 3.3ZM7.32 7.29s-.07.27.22.16c.29-.12 2.32-1 4.7-.95 0 0 .02-.01.1-.14.07-.13.11-.19-.04-.19-.14 0-2.24-.2-4.98 1.12Z" fill="#C31D2D" /><path d="M10.71 5h.64l-.95 1.62L9 9.02s-.12.16.05.42c.17.28.94 1.67.94 1.67s.06.15.19-.07L13.75 5h.6l-3.47 6-1.18 1.9s-.26.22-.46-.04c-.2-.27-1.15-1.93-1.15-1.93s-.11-.17-.2 0c-.1.2-1.08 1.9-1.08 1.9s-.36.41-.64-.04L4.35 9.7s-.1-.59.1-.88c.18-.29.4-.66.49-.73.09-.07.33-.05.48.22L7 11.07s.08.14.22-.1l.37-.66s.12-.14.02-.3c-.1-.15-.49-.44-.29-.89s.61-1 .61-1 .23-.15.44.12c.1.12.2.5.32.22C8.86 8.13 10.71 5 10.71 5Z" fill="#2E3892" /><path d="m3 10.95.67-.2s.08-.04.09.2c0 .22.21.86 1.01 1.02.8.16 1.66.14 2.06.11.42-.03.98-.04.98-.04v.22s-1.29.22-2.26.21c-.97 0-2.5-.03-2.55-1.53ZM12.86 9.82s-1.21 1.26-4.76 2.14v.27s3.18-.68 5.03-2.2l-.27-.21Z" fill="#C31D2D" /></svg>