<?xml version='1.0' encoding='utf-8'?>
<svg xmlns="http://www.w3.org/2000/svg" width="128" height="128" viewBox="0 0 18 18"><path fill="#F0F3FA" d="M0 0h18v18H0z" /><path d="M12.71 8.14c.01.02.03.02.05.02.02 0 .04-.01.05-.03.07-.17.18-.32.32-.44a.06.06 0 0 0 .03-.05.06.06 0 0 0-.03-.05c-.4-.3-.57-.73-.48-1.29a.87.87 0 0 1 .28-.5.82.82 0 0 1 .48-.24c.35-.03.65.03.91.2.28.15.49.4.62.74.06.13.07.33.05.61a.85.85 0 0 1-.38.67c-.03.02-.04.05-.02.08.2.3.3.59.35.89.1.72.07 1.32-.1 1.78-.14.35-.33.58-.57.69-.25.12-.54.1-.86-.08-.1-.05-.2-.14-.33-.28a6.45 6.45 0 0 0-.1-.11c-.03-.03-.05-.03-.08 0-.38.54-.87.73-1.48.59-.06-.01-.09.01-.1.07l-.03.26c-.03.21-.11.4-.26.57a.67.67 0 0 1-.53.26c-.37-.01-.68-.14-.9-.38a1.74 1.74 0 0 1-.43-.94.05.05 0 0 0-.03-.04h-.05l-.08.09c-.19.18-.36.3-.5.37-.1.05-.25.08-.43.09-.64.02-1.15-.28-1.52-.88 0-.02-.02-.03-.04-.02-.02 0-.04 0-.04.03a1.2 1.2 0 0 1-.44.62c-.27.2-.63.23-1.08.1-.21-.07-.4-.22-.55-.46-.13-.2-.22-.43-.28-.7-.08-.4-.1-.72-.08-.99.03-.3.08-.56.17-.8.01-.04 0-.07-.03-.1a4.32 4.32 0 0 1-.86-1A2.2 2.2 0 0 1 3 6.33c0-.48.13-.85.42-1.1.19-.16.4-.24.62-.23.28.01.53.11.74.3.2.17.36.4.48.69.01.02.02.03.04.03s.04-.01.05-.03c.12-.21.28-.4.49-.54.22-.15.44-.23.65-.23.52 0 .92.22 1.2.67.12.2.18.48.19.83a2.7 2.7 0 0 1-.14.88l-.17.3c-.02.04-.01.08.03.1.04.02.07.01.1-.02.18-.23.4-.34.7-.34.28 0 .51.11.7.33.1.11.18.22.23.31 0 .02.02.02.04.02.01 0 .02 0 .03-.02.18-.5.48-.76.88-.8.25-.03.51.04.77.22.03.02.06.03.08.01.28-.11.57-.14.86-.07.32.07.56.23.72.5Z" fill="#A4A4A2" /><path d="m5.33 6.2.03-.1.03-.09c.2-.31.42-.52.67-.62.2-.08.4-.1.61-.08.2.02.37.09.53.2.16.12.29.27.38.46a2.27 2.27 0 0 1-.04 1.67 3.58 3.58 0 0 0-.15.34c.08.07.17.13.26.17h.02c.15-.3.38-.44.68-.43.29 0 .53.13.73.38a3.56 3.56 0 0 1 .32.41l.02-.02c.05-.28.15-.5.31-.67a.8.8 0 0 1 .65-.26c.25 0 .47.1.64.28.02.02.04.03.07 0 .07-.05.15-.09.24-.1.54-.1.97.06 1.27.48.02.03.05.05.08.06.04 0 .07.03.08.08 0 .02.01.03.03.03.02 0 .03-.01.03-.03.07-.29.22-.5.45-.66.04-.03.04-.06.01-.1a2.78 2.78 0 0 1-.4-.47.97.97 0 0 1-.14-.53 12.69 12.69 0 0 1 .02-.44.89.89 0 0 1 .3-.39.77.77 0 0 1 .47-.13c.44 0 .8.18 1.09.55.1.14.16.3.19.46.01.12 0 .3-.01.52-.01.1-.05.2-.13.28a2.02 2.02 0 0 1-.27.27c-.04.03-.04.07-.01.1.2.25.32.56.37.93.04.26.06.61.04 1.05-.02.42-.13.75-.32 1-.24.3-.54.39-.92.25a1.1 1.1 0 0 1-.58-.52.08.08 0 0 0-.06-.04c-.04 0-.06 0-.08.03a2 2 0 0 1-.53.52c-.21.12-.45.16-.7.13l-.32-.04c-.08 0-.13.04-.14.12l-.01.14c-.02.27-.06.46-.13.56a.8.8 0 0 1-.27.3.66.66 0 0 1-.38.06c-.46-.03-.78-.29-.97-.75a2.18 2.18 0 0 1-.16-.64.05.05 0 0 0-.03-.05l-.06.01c-.14.14-.29.26-.43.38-.18.15-.4.23-.66.24-.23.02-.46-.02-.7-.12-.32-.12-.6-.39-.83-.8-.01-.02-.03-.03-.05-.03l-.03.03a2 2 0 0 1-.25.48.92.92 0 0 1-.62.41c-.24.04-.48 0-.73-.12-.18-.1-.34-.27-.47-.54a1.94 1.94 0 0 1-.21-.7 6.1 6.1 0 0 1-.02-.9c.02-.23.07-.44.17-.64.02-.04.02-.08-.02-.12a5.67 5.67 0 0 1-.8-.88 2.17 2.17 0 0 1-.32-1.92c.26-.51.65-.69 1.15-.52.14.05.27.13.4.25.13.1.23.22.3.34a10.48 10.48 0 0 0 .25.43.1.1 0 0 0 0 .03c.01.03.03.04.06.02Z" fill="#F0F3FA" /><path d="M6.6 5.63c.2-.05.35.01.47.17.1.13.18.27.23.42l.02.13v.55a.83.83 0 0 1-.13.34 3.55 3.55 0 0 1-.26.5c-.27.28-.58.48-.94.6a.1.1 0 0 0-.05.04.26.26 0 0 0-.04.26A3.08 3.08 0 0 1 6.1 10c-.04.37-.15.67-.35.9a.45.45 0 0 1-.25.12c-.42.1-.72-.04-.89-.41a1.08 1.08 0 0 1-.07-.36l-.03-.38.11.38.02.01c.01 0 .02 0 .02-.02a.98.98 0 0 0-.04-.25l-.05-.26a1.72 1.72 0 0 1 .21-1.05.32.32 0 0 0 .07-.24.05.05 0 0 0-.03-.05l-.05.01-.09.07c-.04 0-.06-.04-.06-.11l-.12-.11c.03 0 .04-.02.04-.04.02-.03 0-.06-.02-.08-.44-.3-.78-.7-1.02-1.21a.48.48 0 0 1 0-.41c0-.32.03-.53.07-.63a.57.57 0 0 1 .44-.38c.02 0 .03-.03.04-.05 0-.03-.01-.05-.04-.06-.17-.06-.32-.03-.43.1a.6.6 0 0 0-.15.45v-.1c-.02-.02-.03-.02-.06 0l-.07.05c.04-.16.1-.3.21-.42.1-.12.24-.2.39-.23.16-.03.34.01.53.14.16.12.29.26.39.44.12.2.24.54.36.98.06.23.12.4.16.52.01.05.05.07.1.07s.08-.02.1-.07c.07-.18.11-.36.13-.55.03-.24.08-.42.14-.54.15-.28.42-.46.8-.52.02 0 .03-.01.03-.03v-.04l-.04-.02Z" fill="#FC0903" /><path d="M3.5 6.52c-.07-.18-.09-.37-.07-.57a.6.6 0 0 1 .15-.45c.11-.13.26-.16.43-.1.03.01.04.03.04.06 0 .02-.02.04-.04.05a.57.57 0 0 0-.44.38c-.04.1-.06.31-.07.63Z" fill="#F0F3FA" /><path d="M4.62 8.37c0 .07.02.1.06.11a1.8 1.8 0 0 0-.2 1.03c0 .19.02.3.03.37l.03.38c0 .15.03.27.07.36.17.37.47.5.9.41.1-.02.18-.06.24-.13.2-.22.31-.52.34-.89v-.34c0-.31-.06-.66-.19-1.03a.26.26 0 0 1 .04-.26.1.1 0 0 1 .05-.03c.36-.13.67-.33.94-.61a3.54 3.54 0 0 0 .26-.5c.07-.1.11-.22.13-.34v-.37a6.39 6.39 0 0 1-.02-.31c-.05-.15-.13-.3-.23-.42-.12-.16-.28-.22-.47-.17-.5-.08-.83.12-.96.6-.02.1-.06.34-.1.74-.01.04-.03.06-.07.06-.04 0-.06-.02-.06-.07.02-.45.11-.79.28-1.01.14-.2.34-.34.58-.43.27-.09.5-.07.7.07.36.25.53.62.5 1.12a1.83 1.83 0 0 1-.51 1.18c-.28.28-.6.47-.94.57-.04.01-.05.04-.03.08.14.4.22.79.22 1.19-.01.97-.32 1.45-.93 1.44-.32 0-.56-.17-.74-.52-.13-.26-.2-.59-.23-.98-.03-.43.06-.82.26-1.17a.35.35 0 0 0 .05-.13Z" fill="#B51006" /><path d="M14.46 7.17a.63.63 0 0 1-.5.3.9.9 0 0 1-.63-.19 1 1 0 0 1-.4-.56.73.73 0 0 1 .08-.6.63.63 0 0 1 .5-.3.9.9 0 0 1 .63.18 1 1 0 0 1 .4.56c.06.23.03.43-.08.6Z" fill="#0486B7" /><path d="M3.43 5.95c-.02.2 0 .39.07.57a.48.48 0 0 0 0 .41c.24.5.57.91 1.02 1.2.03.03.04.06.02.1l-.04.03c-.4-.27-.71-.6-.94-1A1.86 1.86 0 0 1 3.3 5.9l.07-.06c.03-.01.04 0 .05.02l.01.1Z" fill="#B51006" /><path d="M13.7 6.05c.01 0 .02.01.01.03 0 .01 0 .02-.02.02a.52.52 0 0 0-.54.36c0 .02-.01.02-.02.02l-.04-.01c-.08-.16-.06-.3.06-.43.07-.07.14-.1.23-.1.05 0 .13.03.24.08l.08.03Z" fill="#F0F3FA" /><path d="M13.76 10.82c-.23 0-.43-.15-.6-.45-.16-.3-.25-.67-.26-1.1 0-.43.07-.8.23-1.11.15-.31.35-.47.58-.48.23 0 .42.15.6.45.16.3.25.67.26 1.1 0 .44-.07.8-.23 1.12-.16.3-.35.46-.58.47Z" fill="#0486B7" /><path d="M11.38 7.97c-.02 0-.03 0-.03-.02s0-.03.02-.03c.5-.15.87.01 1.12.5a2.62 2.62 0 0 1 .21 1.39c-.04.33-.17.6-.38.8a.94.94 0 0 1-.78.28c-.24-.02-.46-.1-.68-.22h-.04a.04.04 0 0 0-.01.05c.1.29.1.56.02.83a.73.73 0 0 1-.24.39.47.47 0 0 1-.41.07.87.87 0 0 1-.58-.5 1.98 1.98 0 0 1-.19-.8c-.03-.53 0-1.06.07-1.58.11-.76.32-1.2.62-1.34a.7.7 0 0 1 .38-.06c.14.02.25.1.32.22.1.15.16.3.18.42 0 .05.03.08.07.1.04 0 .07 0 .1-.04a.75.75 0 0 1 .43-.27c.05 0 .07-.04.07-.1 0-.06-.03-.09-.09-.09h-.18Z" fill="#028333" /><path d="M13.21 9.81c0 .02 0 .02-.02.03l-.01-.01c-.1-.51-.13-.95-.09-1.31.02-.16.07-.32.17-.49.1-.17.23-.24.4-.21.04 0 .06.03.07.08 0 .04 0 .07-.05.1a.92.92 0 0 0-.35.3 3.35 3.35 0 0 0-.12 1.5Z" fill="#F0F3FA" /><path d="M9.71 8.54c.03-.12.08-.26.15-.42.09-.2.22-.28.4-.26.03 0 .05.01.06.04.02.02.02.04 0 .07-.02.05-.05.07-.08.08a.06.06 0 0 0-.04.04.41.41 0 0 1-.19.21.13.13 0 0 0-.04.04c-.08.12-.15.36-.21.73a8.48 8.48 0 0 0-.1 1.78l-.06-.13v-.01a7.86 7.86 0 0 1 .11-2.17Z" fill="#ADEBA8" /><path d="m8.5 7.91-.1.02c-.02 0-.03.02-.04.04v.04c.05.02.07.06.07.12 0 .05-.03.09-.08.1a.9.9 0 0 0-.32.25h-.02c-.04.02-.07-.01-.09-.1 0-.01-.01-.02-.04-.02-.02 0-.03.01-.03.03l-.02.14c-.04-.2.02-.37.18-.5.16-.12.32-.16.48-.12Z" fill="#FED9BB" /><path d="M8.5 7.91c.18.06.33.19.44.37.44.78.42 1.55-.04 2.31-.07.1-.16.21-.28.32-.13.1-.25.18-.36.23-.38.14-.73.09-1.06-.15-.3-.21-.52-.53-.66-.94a4.4 4.4 0 0 1-.12-.77c-.03-.32 0-.58.11-.8h.04c.01 0 .02 0 .02.02v.2c0 .03.02.05.05.05.03.01.05 0 .06-.04a.78.78 0 0 1 .3-.35.08.08 0 0 0 .03-.08c0-.03-.02-.05-.05-.06-.02 0-.03-.02-.04-.05 0-.04 0-.06.04-.06.12-.02.21-.02.27.03.3.21.4.53.32.94-.02.1-.02.28 0 .55l.04.07c.03.04.09.07.15.1a.1.1 0 0 1 .05.04l.04.08.04.03c.08.03.14.03.2 0s.07-.1.04-.2a.1.1 0 0 0-.1-.07c-.02 0-.03-.02-.03-.05v-.49l-.17-.6.02-.15c0-.02.01-.03.03-.03.03 0 .04 0 .04.03.02.08.05.11.1.1l.01-.01c.1-.11.2-.2.32-.24a.12.12 0 0 0 .08-.11c0-.06-.02-.1-.06-.12-.01 0-.02-.02-.01-.04 0-.02.02-.04.04-.04l.1-.02Z" fill="#FBB407" /><path d="M4.51 9.88a2.87 2.87 0 0 1-.03-.37 1.8 1.8 0 0 1 .2-1.03l.09-.07a.04.04 0 0 1 .05 0c.02 0 .03.02.03.04 0 .09-.01.17-.07.24l-.03.06A1.72 1.72 0 0 0 4.62 10c.03.08.04.17.04.25l-.01.02-.02-.01-.12-.38Z" fill="#FED9BB" /><path d="M11.54 9.48a.37.37 0 0 1-.3.23.54.54 0 0 1-.24-.1.08.08 0 0 1-.03-.06c0-.1 0-.18.03-.26.04-.1.1-.15.18-.16.11 0 .2.01.28.07.08.06.1.16.08.28Z" fill="#F0F3FA" /><path d="M11.24 9.7c.14-.01.24-.09.3-.22.03.08.08.06.15-.05 0-.02.02-.02.04-.02s.03.01.04.03c.02.11.02.22-.02.3-.07.17-.23.24-.48.2-.03 0-.04-.02-.04-.06 0-.02.02-.05.05-.08.03-.01.03-.03.02-.06-.02-.02-.03-.03-.06-.03Z" fill="#FED9BB" /></svg>