<?xml version='1.0' encoding='utf-8'?>
<svg xmlns="http://www.w3.org/2000/svg" width="128" height="128" viewBox="0 0 18 18"><path fill="url(#a)" d="M0 0h18v18H0z" /><path d="M8 5v1H7a1 1 0 1 1 1-1ZM10 5v1h1a1 1 0 1 0-1-1ZM10 7a1 1 0 0 1-2 0V6h2v1ZM5 10h1v1a1 1 0 1 1-1-1ZM5 8h1V7a1 1 0 1 0-1 1ZM7 8a1 1 0 0 1 0 2H6V8h1ZM8 13v-1H7a1 1 0 1 0 1 1ZM10 13v-1h1a1 1 0 1 1-1 1ZM10 11a1 1 0 1 0-2 0v1h2v-1ZM13 10h-1v1a1 1 0 1 0 1-1ZM13 8h-1V7a1 1 0 1 1 1 1ZM11 8a1 1 0 1 0 0 2h1V8h-1Z" fill="#F0F3FA" /><defs><linearGradient id="a" x1="3.35" y1="3.12" x2="21.9" y2="24.43" gradientUnits="userSpaceOnUse"><stop stop-color="#1A1E21" /><stop offset="1" stop-color="#06060A" /></linearGradient></defs></svg>